<?xml version="1.0" standalone="no"?>
<!DOCTYPE svg PUBLIC "-//W3C//DTD SVG 1.1//EN" "http://www.w3.org/Graphics/SVG/1.1/DTD/svg11.dtd" >
<svg>
<metadata>
Created by FontForge 20110222 at Thu May 15 16:36:23 2014
 By Orthosie Webhosting
Copyright (c) 2009 by One by Four. All rights reserved.
</metadata>
<defs>
<font id="MatchbookMatchbook" horiz-adv-x="235" >
  <font-face 
    font-family="MatchbookMatchbook"
    font-weight="400"
    font-stretch="normal"
    units-per-em="1000"
    panose-1="2 0 0 0 0 0 0 0 0 0"
    ascent="750"
    descent="-250"
    x-height="389"
    cap-height="750"
    bbox="0 -180 351 879"
    underline-thickness="50"
    underline-position="-50"
    unicode-range="U+0020-FB02"
  />
<missing-glyph horiz-adv-x="500" 
 />
    <glyph glyph-name=".notdef" horiz-adv-x="500" 
 />
    <glyph glyph-name=".null" horiz-adv-x="0" 
 />
    <glyph glyph-name="nonmarkingreturn" horiz-adv-x="333" 
 />
    <glyph glyph-name="space" unicode=" " horiz-adv-x="170" 
 />
    <glyph glyph-name="exclam" unicode="!" horiz-adv-x="131" 
d="M66 82q6 0 10.5 -4.5t4.5 -10.5v-52q0 -6 -4.5 -10.5t-10.5 -4.5q-7 0 -11.5 4.5t-4.5 10.5v52q0 6 4.5 10.5t11.5 4.5zM66 750q6 0 10.5 -4.5t4.5 -10.5v-605q0 -15 -15 -15q-16 0 -16 15v605q0 6 4.5 10.5t11.5 4.5z" />
    <glyph glyph-name="quotedbl" unicode="&#x22;" horiz-adv-x="185" 
d="M117 750q15 0 15 -15v-41q0 -16 -15 -16q-6 0 -10.5 4.5t-4.5 11.5v41q0 6 4.5 10.5t10.5 4.5zM65 750q6 0 10.5 -4.5t4.5 -10.5v-41q0 -7 -4.5 -11.5t-10.5 -4.5q-15 0 -15 16v41q0 15 15 15z" />
    <glyph glyph-name="numbersign" unicode="#" horiz-adv-x="211" 
d="M160 358q15 0 15 -15q0 -16 -15 -16h-5v-5q0 -6 -4.5 -10.5t-10.5 -4.5t-10.5 4.5t-4.5 10.5v5h-34v-5q0 -6 -4.5 -10.5t-10.5 -4.5q-15 0 -15 15v5h-5q-16 0 -16 16q0 6 4.5 10.5t11.5 4.5h5v34h-5q-16 0 -16 15q0 6 4.5 10.5t11.5 4.5h5v5q0 15 15 15t15 -15v-5h34v5
q0 15 15 15t15 -15v-5h5q15 0 15 -15t-15 -15h-5v-34h5zM91 358h34v34h-34v-34z" />
    <glyph glyph-name="dollar" unicode="$" horiz-adv-x="240" 
d="M82 644l104 -532v-1q1 -1 1 -2q0 -24 -15 -42.5t-38 -23.5v-27q0 -6 -4.5 -10.5t-10.5 -4.5t-10.5 4.5t-4.5 10.5v27q-23 5 -38 23.5t-15 42.5q0 6 4.5 10.5t11.5 4.5q6 0 10.5 -4.5t4.5 -10.5q0 -16 10.5 -26.5t26.5 -10.5q15 0 25.5 10.5t11.5 24.5l-104 533q-1 1 -1 3
q0 24 15 42t38 23v28q0 6 4.5 10.5t10.5 4.5t10.5 -4.5t4.5 -10.5v-28q23 -5 38 -23t15 -42q0 -16 -16 -16q-6 0 -10.5 4.5t-4.5 11.5q0 15 -11 26t-26 11v0q-15 0 -25.5 -10.5t-11.5 -25.5z" />
    <glyph glyph-name="percent" unicode="%" horiz-adv-x="240" 
d="M66 0h-2q-15 2 -13 17l105 720q2 15 17 13q15 -4 13 -18l-105 -719q-2 -13 -15 -13zM92 636q-17 0 -29.5 12.5t-12.5 29.5t12.5 29t29.5 12t29 -12t12 -29t-12 -29.5t-29 -12.5zM92 689q-11 0 -11 -11q0 -12 11 -12t11 12q0 11 -11 11zM145 14q-17 0 -29.5 12t-12.5 29
t12.5 29.5t29.5 12.5t29 -12.5t12 -29.5t-12 -29t-29 -12zM145 66q-12 0 -12 -11t12 -11q11 0 11 11t-11 11z" />
    <glyph glyph-name="ampersand" unicode="&#x26;" horiz-adv-x="271" 
d="M214 498q15 0 15 -15q0 -6 -4.5 -10.5t-10.5 -4.5h-29v-453q0 -15 -15 -15h-52q-28 0 -48 20t-20 48v363q0 32 25 52q-25 22 -25 53v147q0 28 20 47.5t48 19.5t47.5 -19.5t19.5 -47.5q0 -16 -15 -16q-6 0 -10.5 4.5t-4.5 11.5q0 15 -11 26t-26 11q-16 0 -26.5 -11
t-10.5 -26v-147q0 -16 10.5 -27t26.5 -11h37v44q0 15 15 15t15 -15v-44h29zM155 31v437h-37q-16 0 -26.5 -11t-10.5 -26v-363q0 -16 10.5 -26.5t26.5 -10.5h37z" />
    <glyph glyph-name="quotesingle" unicode="'" horiz-adv-x="130" 
d="M65 750q15 0 15 -15v-41q0 -16 -15 -16q-6 0 -10.5 4.5t-4.5 11.5v41q0 6 4.5 10.5t10.5 4.5z" />
    <glyph glyph-name="parenleft" unicode="(" horiz-adv-x="180" 
d="M117 0q-28 0 -47.5 19.5t-19.5 47.5v615q0 28 19.5 48t47.5 20q7 0 11.5 -4.5t4.5 -10.5q0 -16 -16 -16q-15 0 -26 -10.5t-11 -26.5v-615q0 -15 11 -26t26 -11q7 0 11.5 -4.5t4.5 -10.5t-4.5 -10.5t-11.5 -4.5z" />
    <glyph glyph-name="parenright" unicode=")" horiz-adv-x="190" 
d="M64 0q-6 0 -10.5 4.5t-4.5 10.5t4.5 10.5t10.5 4.5q16 0 26.5 11t10.5 26v615q0 16 -10.5 26.5t-26.5 10.5q-6 0 -10.5 4.5t-4.5 11.5q0 6 4.5 10.5t10.5 4.5q28 0 48 -20t20 -48v-615q0 -28 -20 -47.5t-48 -19.5z" />
    <glyph glyph-name="asterisk" unicode="*" horiz-adv-x="225" 
d="M165 669q13 -8 6 -20q-5 -8 -13 -8q-4 0 -8 2l-22 13v-26q0 -6 -4.5 -10.5t-11.5 -4.5q-6 0 -10.5 4.5t-4.5 10.5v26l-22 -13q-6 -2 -8 -2q-8 0 -13 8q-8 13 6 20l22 13l-22 14q-14 7 -6 20q8 14 21 6l22 -13v26q0 6 4.5 10.5t10.5 4.5q7 0 11.5 -4.5t4.5 -10.5v-26
l22 13q13 8 21 -6q7 -13 -6 -21l-22 -13z" />
    <glyph glyph-name="plus" unicode="+" horiz-adv-x="237" 
d="M170 280q7 0 11.5 -4.5t4.5 -10.5q0 -15 -16 -15h-37v-38q0 -6 -4.5 -10.5t-10.5 -4.5t-10.5 4.5t-4.5 10.5v38h-37q-16 0 -16 15q0 6 4.5 10.5t11.5 4.5h37v37q0 15 15 15t15 -15v-37h37z" />
    <glyph glyph-name="comma" unicode="," horiz-adv-x="135" 
d="M59 1q-6 -2 -11 3q-12 9 -3 21l30 42q10 12 22 3q12 -10 3 -22l-31 -41q-3 -4 -10 -6z" />
    <glyph glyph-name="hyphen" unicode="-" horiz-adv-x="237" 
d="M170 240h-104q-16 0 -16 15q0 6 4.5 10.5t11.5 4.5h104q7 0 11.5 -4.5t4.5 -10.5q0 -15 -16 -15z" />
    <glyph glyph-name="period" unicode="." horiz-adv-x="135" 
d="M65 0q-6 0 -10.5 4.5t-4.5 10.5v52q0 6 4.5 10.5t10.5 4.5q7 0 11.5 -4.5t4.5 -10.5v-52q0 -6 -4.5 -10.5t-11.5 -4.5z" />
    <glyph glyph-name="slash" unicode="/" 
d="M66 0h-2q-15 2 -13 17l105 720q2 15 17 13q15 -4 13 -18l-105 -719q-2 -13 -15 -13z" />
    <glyph glyph-name="zero" unicode="0" horiz-adv-x="236" 
d="M118 0q-28 0 -48 20t-20 48v614q0 28 20 48t48 20t47.5 -20t19.5 -48v-614q0 -28 -19.5 -48t-47.5 -20zM118 720q-16 0 -27 -11t-11 -27v-614q0 -16 11 -27t27 -11q15 0 26 11t11 27v614q0 16 -11 27t-26 11z" />
    <glyph glyph-name="one" unicode="1" horiz-adv-x="187" 
d="M118 -1q-6 0 -10.5 4.5t-4.5 10.5v683l-26 -26q-11 -11 -22 0t0 21l53 53q6 6 16 3q9 -3 9 -14v-720q0 -15 -15 -15z" />
    <glyph glyph-name="two" unicode="2" horiz-adv-x="237" 
d="M171 83q6 0 10.5 -4.5t4.5 -10.5q0 -28 -19.5 -48t-47.5 -20h-53q-6 0 -11 5q-4 5 -4 13l105 666q-1 15 -11.5 25.5t-25.5 10.5q-16 0 -26.5 -11t-10.5 -27q0 -6 -4.5 -10.5t-11.5 -4.5q-6 0 -10.5 4.5t-4.5 10.5q0 28 19.5 48t48.5 20q28 0 47.5 -20t19.5 -48v-2
l-102 -650h35q15 0 26 11t11 27q0 6 4.5 10.5t10.5 4.5z" />
    <glyph glyph-name="three" unicode="3" horiz-adv-x="237" 
d="M186 506q0 -32 -25 -52q25 -22 25 -53v-333q0 -28 -20 -48t-48 -20t-47.5 20t-19.5 48q0 6 4.5 10.5t10.5 4.5q15 0 15 -15q0 -16 11 -27t26 -11q16 0 27 11t11 27v333q0 16 -11 26.5t-27 10.5q-6 0 -10.5 4.5t-4.5 11.5q0 6 4.5 10.5t10.5 4.5v0q16 0 27 11t11 26v176
q0 16 -11 27t-27 11q-15 0 -26 -11t-11 -27q0 -15 -15 -15q-6 0 -10.5 4.5t-4.5 10.5q0 28 19.5 48t47.5 20t48 -20t20 -48v-176z" />
    <glyph glyph-name="four" unicode="4" horiz-adv-x="238" 
d="M170 1q-6 0 -10.5 4.5t-4.5 10.5v345h-89q-8 0 -13 6q-3 7 -2 13l105 360q4 13 17 11t13 -15v-720q0 -6 -4.5 -10.5t-11.5 -4.5zM86 391h69v238z" />
    <glyph glyph-name="five" unicode="5" horiz-adv-x="238" 
d="M118 0q-28 0 -48 20t-20 48q0 6 4.5 10.5t11.5 4.5q6 0 10.5 -4.5t4.5 -10.5q0 -16 11 -27t26 -11q16 0 26.5 11t10.5 27v255q0 15 -11 26t-26 11h-52q-7 0 -11.5 4.5t-4.5 10.5v360q0 6 4.5 10.5t11.5 4.5h104q7 0 11.5 -4.5t4.5 -10.5q0 -15 -16 -15h-89v-330h37
q28 0 48 -19.5t20 -47.5v-255q0 -28 -20 -48t-48 -20z" />
    <glyph glyph-name="six" unicode="6" horiz-adv-x="237" 
d="M117 0q-28 0 -47.5 20t-19.5 48v614q0 28 19.5 48t47.5 20t48 -20t20 -48q0 -6 -4.5 -10.5t-10.5 -4.5q-7 0 -11.5 4.5t-4.5 10.5q0 16 -10.5 27t-26.5 11q-15 0 -26 -11t-11 -27v-303q17 11 37 11q28 0 48 -19.5t20 -47.5v-255q0 -28 -20 -48t-48 -20zM80 323v-255
q0 -16 11 -27t26 -11q16 0 26.5 11t10.5 27v255q0 15 -10.5 26t-26.5 11q-15 0 -26 -11t-11 -26z" />
    <glyph glyph-name="seven" unicode="7" horiz-adv-x="237" 
d="M66 0h-2q-15 2 -13 17l102 703h-87q-15 0 -15 15q0 6 4.5 10.5t10.5 4.5h105q6 0 11 -5q5 -7 4 -12l-105 -720q-2 -13 -15 -13z" />
    <glyph glyph-name="eight" unicode="8" horiz-adv-x="238" 
d="M185 427q0 -32 -25 -52q25 -20 25 -52v-255q0 -28 -19.5 -48t-48.5 -20q-28 0 -47.5 20t-19.5 48v255q0 32 25 52q-25 20 -25 52v255q0 28 19.5 48t47.5 20q29 0 48.5 -20t19.5 -48v-255zM80 682v-255q0 -15 11 -26t26 -11q16 0 27 11t11 26v255q0 16 -11 27t-27 11
q-15 0 -26 -11t-11 -27zM155 68v255q0 15 -11 26t-27 11q-15 0 -26 -11t-11 -26v-255q0 -16 11 -27t26 -11q16 0 27 11t11 27z" />
    <glyph glyph-name="nine" unicode="9" horiz-adv-x="238" 
d="M118 0q-28 0 -48 20t-20 48q0 6 4.5 10.5t11.5 4.5q6 0 10.5 -4.5t4.5 -10.5q0 -16 10.5 -27t26.5 -11q15 0 26 11t11 27v303q-17 -11 -37 -11q-28 0 -48 19.5t-20 47.5v255q0 28 20 48t48 20t48 -20t20 -48v-614q0 -28 -20 -48t-48 -20zM118 720q-16 0 -26.5 -11
t-10.5 -27v-255q0 -15 10.5 -26t26.5 -11q15 0 26 11t11 26v255q0 16 -11 27t-26 11z" />
    <glyph glyph-name="colon" unicode=":" horiz-adv-x="130" 
d="M65 249q15 0 15 -15v-52q0 -15 -15 -15q-6 0 -10.5 4.5t-4.5 10.5v52q0 6 4.5 10.5t10.5 4.5zM65 383q15 0 15 -15v-52q0 -15 -15 -15q-6 0 -10.5 4.5t-4.5 10.5v52q0 6 4.5 10.5t10.5 4.5z" />
    <glyph glyph-name="semicolon" unicode=";" horiz-adv-x="185" 
d="M114 64q11 -11 0 -22l-37 -36q-10 -11 -21 0q-10 10 0 21l36 37q11 11 22 0zM102 210q15 0 15 -15v-52q0 -15 -15 -15q-6 0 -10.5 4.5t-4.5 10.5v52q0 6 4.5 10.5t10.5 4.5z" />
    <glyph glyph-name="less" unicode="&#x3c;" 
d="M172 0q-12 0 -15 11l-106 356q-1 5 0 9l106 363q4 15 19 11q14 -5 11 -20l-105 -359l105 -351q4 -15 -11 -19q-1 -1 -4 -1z" />
    <glyph glyph-name="equal" unicode="=" horiz-adv-x="237" 
d="M170 247q6 0 10.5 -4.5t4.5 -10.5q0 -7 -4.5 -11.5t-10.5 -4.5h-105q-6 0 -10.5 4.5t-4.5 11.5q0 6 4.5 10.5t10.5 4.5h105zM65 269q-6 0 -10.5 4.5t-4.5 10.5t4.5 10.5t10.5 4.5h105q6 0 10.5 -4.5t4.5 -10.5t-4.5 -10.5t-10.5 -4.5h-105z" />
    <glyph glyph-name="greater" unicode="&#x3e;" 
d="M67 -1q-3 0 -5 1q-14 3 -10 19l105 351l-105 359q-3 15 11 20q14 3 19 -11l105 -363q1 -5 0 -9l-105 -356q-3 -11 -15 -11z" />
    <glyph glyph-name="question" unicode="?" horiz-adv-x="236" 
d="M118 82q6 0 10.5 -4.5t4.5 -10.5v-52q0 -6 -4.5 -10.5t-10.5 -4.5q-15 0 -15 15v52q0 15 15 15zM185 682v0v-2l-52 -307v-243q0 -15 -15 -15t-15 15v245v2l52 306q-1 15 -11.5 25.5t-25.5 10.5q-16 0 -26.5 -10.5t-10.5 -26.5q0 -6 -4.5 -10.5t-11.5 -4.5q-6 0 -10.5 4.5
t-4.5 10.5q0 28 20 48t48 20t47.5 -20t19.5 -48v0z" />
    <glyph glyph-name="at" unicode="@" horiz-adv-x="354" 
d="M288 353q16 0 16 -16v-265q0 -35 -20 -55q-17 -17 -43 -17h-123q-28 0 -48 19.5t-20 47.5v438q0 28 20 48t48 20h60q28 0 48 -20t20 -48v-388q0 -29 -20 -48.5t-48 -19.5t-47.5 20t-19.5 48v243v12q0 28 19.5 48t47.5 20q19 0 38 -12v77q0 16 -11 26.5t-27 10.5h-60
q-16 0 -27 -10.5t-11 -26.5v-438q0 -15 11 -26t27 -11h123q12 0 22 8q10 11 10 34v265q0 7 4.5 11.5t10.5 4.5zM216 117v255q0 15 -11 26t-27 11q-15 0 -26 -11t-11 -26v-77v-178q0 -16 11 -27t26 -11q16 0 27 11t11 27z" />
    <glyph glyph-name="A" unicode="A" horiz-adv-x="240" 
d="M186 681v-69v-598q0 -15 -16 -15q-15 0 -15 15v344h-74v-344q0 -15 -15 -15q-16 0 -16 15v667q0 28 20 48t48 20t48 -20t20 -48zM81 389h74v27v265q0 16 -10.5 26.5t-26.5 10.5q-15 0 -26 -10.5t-11 -26.5v-292z" />
    <glyph glyph-name="B" unicode="B" horiz-adv-x="236" 
d="M117 750q28 0 48 -19.5t20 -47.5v-87v-110v-59q0 -32 -25 -52q20 -16 24 -41q1 -2 1 -5v-6v-168v-87q0 -28 -19.5 -48t-48.5 -20q-28 0 -47.5 20t-19.5 48v615q0 28 19.5 47.5t47.5 19.5zM155 323q0 15 -11 26t-27 11h-37v-292q0 -16 11 -27t26 -11q16 0 27 11t11 27v87
v168zM80 390h37q16 0 27 11t11 26v59v110v87q0 15 -11 26t-27 11q-15 0 -26 -11t-11 -26v-293z" />
    <glyph glyph-name="C" unicode="C" horiz-adv-x="239" 
d="M118 0q-28 0 -48 20t-20 48v615q0 28 20 47.5t48 19.5t47.5 -19.5t19.5 -47.5q0 -16 -15 -16q-6 0 -10.5 4.5t-4.5 11.5q0 15 -11 26t-26 11q-16 0 -26.5 -11t-10.5 -26v-615q0 -16 10.5 -27t26.5 -11q15 0 26 11t11 27q0 6 4.5 10.5t10.5 4.5q15 0 15 -15
q0 -28 -19.5 -48t-47.5 -20z" />
    <glyph glyph-name="D" unicode="D" horiz-adv-x="240" 
d="M118 750q28 0 48 -19.5t20 -47.5v-615q0 -28 -20 -48t-48 -20h-52q-6 0 -10.5 4.5t-4.5 10.5v720q0 6 4.5 10.5t10.5 4.5h52zM156 68v615q0 15 -11 26t-27 11h-37v-690h37q16 0 27 11t11 27z" />
    <glyph glyph-name="E" unicode="E" horiz-adv-x="240" 
d="M170 360h-90v-292q0 -16 11 -27t26 -11q16 0 26.5 11t10.5 27q0 6 4.5 10.5t11.5 4.5q6 0 10.5 -4.5t4.5 -10.5q0 -28 -19.5 -48t-48.5 -20q-28 0 -47.5 20t-19.5 48v615q0 28 19.5 47.5t47.5 19.5t48 -19.5t20 -47.5q0 -7 -4.5 -11.5t-10.5 -4.5q-16 0 -16 16
q0 15 -10.5 26t-26.5 11q-15 0 -26 -11t-11 -26v-293h90q6 0 10.5 -4.5t4.5 -10.5t-4.5 -10.5t-10.5 -4.5z" />
    <glyph glyph-name="F" unicode="F" horiz-adv-x="221" 
d="M171 393q6 0 10.5 -4.5t4.5 -11.5q0 -6 -4.5 -10.5t-10.5 -4.5h-91v-347q0 -15 -15 -15q-6 0 -10.5 4.5t-4.5 10.5v720q0 6 4.5 10.5t10.5 4.5h106q6 0 10.5 -4.5t4.5 -10.5q0 -7 -4.5 -11.5t-10.5 -4.5h-91v-326h91z" />
    <glyph glyph-name="G" unicode="G" 
d="M118 0q-28 0 -48 20t-20 48v615q0 28 20 47.5t48 19.5t47.5 -19.5t19.5 -47.5q0 -16 -15 -16q-6 0 -10.5 4.5t-4.5 11.5q0 15 -11 26t-26 11q-16 0 -26.5 -11t-10.5 -26v-615q0 -16 10.5 -27t26.5 -11q15 0 26 11t11 27v194h-37q-6 0 -10.5 4.5t-4.5 10.5q0 15 15 15h52
q15 0 15 -15v-209q0 -28 -19.5 -48t-47.5 -20z" />
    <glyph glyph-name="H" unicode="H" 
d="M169 750q7 0 11.5 -4.5t4.5 -10.5v-720q0 -6 -4.5 -10.5t-11.5 -4.5q-6 0 -10.5 4.5t-4.5 10.5v345h-74v-345q0 -6 -4.5 -10.5t-10.5 -4.5q-15 0 -15 15v720q0 15 15 15q6 0 10.5 -4.5t4.5 -10.5v-345h74v345q0 6 4.5 10.5t10.5 4.5z" />
    <glyph glyph-name="I" unicode="I" horiz-adv-x="130" 
d="M65 0q-6 0 -10.5 4.5t-4.5 10.5v720q0 6 4.5 10.5t10.5 4.5q7 0 11.5 -4.5t4.5 -10.5v-720q0 -6 -4.5 -10.5t-11.5 -4.5z" />
    <glyph glyph-name="J" unicode="J" horiz-adv-x="240" 
d="M118 0q-28 0 -48 20t-20 48q0 6 4.5 10.5t10.5 4.5q7 0 11.5 -4.5t4.5 -10.5q0 -16 10.5 -27t26.5 -11q15 0 26 11t11 27v667q0 6 4.5 10.5t10.5 4.5q15 0 15 -15v-667q0 -28 -19.5 -48t-47.5 -20z" />
    <glyph glyph-name="K" unicode="K" horiz-adv-x="237" 
d="M185 17q4 -14 -12 -18h-3q-12 0 -15 12l-72 364l-2 -8v-353q0 -6 -4.5 -10.5t-10.5 -4.5q-7 0 -11.5 4.5t-4.5 10.5v720q0 6 4.5 10.5t11.5 4.5q6 0 10.5 -4.5t4.5 -10.5v-257l75 261q4 15 18 10q15 -3 11 -18l-84 -291z" />
    <glyph glyph-name="L" unicode="L" horiz-adv-x="210" 
d="M170 0h-53q-28 0 -47.5 20t-19.5 48v667q0 6 4.5 10.5t10.5 4.5t10.5 -4.5t4.5 -10.5v-667q0 -16 11 -27t26 -11h53q15 0 15 -15q0 -6 -4.5 -10.5t-10.5 -4.5z" />
    <glyph glyph-name="M" unicode="M" horiz-adv-x="340" 
d="M223 750q28 0 47.5 -19.5t19.5 -47.5v-668q0 -6 -4.5 -10.5t-10.5 -4.5t-10.5 4.5t-4.5 10.5v660v8q0 15 -11 26t-26 11q-16 0 -27 -11t-11 -26v-668q0 -15 -15 -15q-6 0 -10.5 4.5t-4.5 10.5v402v266q0 15 -11 26t-26 11q-16 0 -26.5 -11t-10.5 -26v-668
q0 -6 -4.5 -10.5t-10.5 -4.5q-7 0 -11.5 4.5t-4.5 10.5v668q0 28 20 47.5t48 19.5q32 0 52 -25q22 25 53 25z" />
    <glyph glyph-name="N" unicode="N" horiz-adv-x="236" 
d="M170 750q16 0 16 -16v-719q0 -15 -16 -15q-15 0 -15 15v357l-74 256v-613q0 -15 -15 -15q-16 0 -16 15v719q0 12 13 16q13 2 17 -11l75 -258v253q0 7 4.5 11.5t10.5 4.5z" />
    <glyph glyph-name="O" unicode="O" horiz-adv-x="238" 
d="M118 -1q-28 0 -48 20t-20 48v615q0 28 20 47.5t48 19.5t48 -19.5t20 -47.5v-615q0 -28 -20 -48t-48 -20zM118 719q-16 0 -26.5 -11t-10.5 -26v-615q0 -16 10.5 -27t26.5 -11q15 0 26 11t11 27v615q0 15 -11 26t-26 11z" />
    <glyph glyph-name="P" unicode="P" horiz-adv-x="237" 
d="M118 751q28 0 48 -19.5t20 -47.5v-106v-150v-10q0 -5 -3 -8q-6 -21 -24 -35t-41 -14q-21 0 -37 11v-356q0 -6 -4.5 -10.5t-10.5 -4.5q-7 0 -11.5 4.5t-4.5 10.5v412v142v114q0 28 20 47.5t48 19.5zM118 391q15 0 26 11t11 26v150v106q0 15 -11 26t-26 11q-16 0 -26.5 -11
t-10.5 -26v-114v-142q0 -15 10.5 -26t26.5 -11z" />
    <glyph glyph-name="Q" unicode="Q" horiz-adv-x="239" 
d="M186 683v-615q0 -20 -11 -36l6 -6q11 -11 0 -21q-5 -5 -11 -5q-5 0 -10 5l-6 5q-18 -10 -36 -10q-28 0 -48 20t-20 48v615q0 28 20 47.5t48 19.5t48 -19.5t20 -47.5zM129 78l24 -23q2 8 2 13v615q0 15 -10.5 26t-26.5 11q-15 0 -26 -11t-11 -26v-615q0 -16 11 -27t26 -11
q7 0 13 3l-24 24q-11 11 0 21q11 11 22 0z" />
    <glyph glyph-name="R" unicode="R" 
d="M118 750q28 0 47.5 -19.5t19.5 -47.5v-70v-196q0 -43 -38 -61q-2 -1 -7 -1l45 -338q2 -15 -13 -17h-2q-13 0 -15 13l-45 342h-30v-340q0 -15 -15 -15q-6 0 -10.5 4.5t-4.5 10.5v668q0 28 20 47.5t48 19.5zM155 417v196v70q0 15 -11 26t-26 11q-16 0 -27 -11t-11 -26v-298
h56q19 11 19 32z" />
    <glyph glyph-name="S" unicode="S" horiz-adv-x="236" 
d="M117 0q-28 0 -47.5 20t-19.5 48q0 6 4.5 10.5t10.5 4.5t10.5 -4.5t4.5 -10.5q0 -16 11 -27t26 -11t26 10.5t12 25.5l-105 614v3q0 28 19.5 47.5t47.5 19.5t48 -19.5t20 -47.5q0 -7 -4.5 -11.5t-10.5 -4.5q-15 0 -15 16q0 15 -11 26t-27 11q-15 0 -25.5 -10.5t-11.5 -25.5
l105 -614v-2q0 -28 -19.5 -48t-48.5 -20z" />
    <glyph glyph-name="T" unicode="T" horiz-adv-x="206" 
d="M170 750q6 0 10.5 -4.5t4.5 -10.5q0 -15 -15 -15h-51v-705q0 -6 -4.5 -10.5t-11.5 -4.5q-6 0 -10.5 4.5t-4.5 10.5v705h-53q-15 0 -15 15t15 15h135z" />
    <glyph glyph-name="U" unicode="U" horiz-adv-x="237" 
d="M118 0q-28 0 -48 20t-20 48v667q0 6 4.5 10.5t10.5 4.5q7 0 11.5 -4.5t4.5 -10.5v-667q0 -16 10.5 -27t26.5 -11q15 0 26 11t11 27v667q0 6 4.5 10.5t10.5 4.5q15 0 15 -15v-667q0 -28 -19.5 -48t-47.5 -20z" />
    <glyph glyph-name="V" unicode="V" horiz-adv-x="237" 
d="M119 0q-15 0 -15 14l-53 720q0 14 14 16q15 2 17 -14l37 -511l37 511q1 6 5.5 10.5t10.5 3.5q16 -2 14 -16l-52 -720q-2 -14 -15 -14z" />
    <glyph glyph-name="W" unicode="W" horiz-adv-x="340" 
d="M275 750q6 0 10.5 -4.5t4.5 -10.5v-667q0 -28 -20 -48t-48 -20q-32 0 -52 25q-20 -25 -52 -25q-28 0 -48 20t-20 48v667q0 6 4.5 10.5t10.5 4.5q15 0 15 -15v-667q0 -16 11 -27t27 -11q15 0 26 11t11 27v667q0 6 4.5 10.5t10.5 4.5t10.5 -4.5t4.5 -10.5v-667
q0 -16 11 -27t26 -11q16 0 26.5 11t10.5 27v667q0 6 4.5 10.5t11.5 4.5z" />
    <glyph glyph-name="X" unicode="X" horiz-adv-x="237" 
d="M133 375l52 -358q2 -15 -13 -17h-2q-13 0 -15 13l-38 257l-37 -257q-2 -13 -15 -13h-2q-15 2 -13 17l52 358l-52 358q-2 15 13 17t17 -13l37 -256l38 256q2 15 17 13t13 -17z" />
    <glyph glyph-name="Y" unicode="Y" horiz-adv-x="221" 
d="M157 749q15 -2 13 -17l-53 -364v-353q0 -15 -15 -15t-15 15v353l-52 364q-2 15 13 17q6 1 11 -2.5t6 -9.5l37 -261l38 261q2 15 17 12z" />
    <glyph glyph-name="Z" unicode="Z" horiz-adv-x="237" 
d="M170 0h-105q-8 0 -11 5q-5 7 -4 12l102 703h-87q-15 0 -15 15q0 6 4.5 10.5t10.5 4.5h105q6 0 11 -5q4 -5 4 -12l-102 -703h87q15 0 15 -15q0 -6 -4.5 -10.5t-10.5 -4.5z" />
    <glyph glyph-name="bracketleft" unicode="[" horiz-adv-x="236" 
d="M170 0h-104q-7 0 -11.5 4.5t-4.5 10.5v720q0 6 4.5 10.5t11.5 4.5h104q7 0 11.5 -4.5t4.5 -10.5q0 -16 -16 -16h-89v-689h89q7 0 11.5 -4.5t4.5 -10.5t-4.5 -10.5t-11.5 -4.5z" />
    <glyph glyph-name="backslash" unicode="\" 
d="M171 -1q-13 0 -15 13l-104 719q-3 14 12 18q14 2 18 -13l104 -720q1 -6 -2.5 -11t-9.5 -6h-3z" />
    <glyph glyph-name="bracketright" unicode="]" 
d="M170 0h-105q-6 0 -10.5 4.5t-4.5 10.5t4.5 10.5t10.5 4.5h90v689h-90q-6 0 -10.5 4.5t-4.5 11.5q0 6 4.5 10.5t10.5 4.5h105q6 0 10.5 -4.5t4.5 -10.5v-720q0 -6 -4.5 -10.5t-10.5 -4.5z" />
    <glyph glyph-name="asciicircum" unicode="^" horiz-adv-x="236" 
d="M172 552q-11 0 -14 10l-38 122l-38 -122q-5 -13 -19 -10q-15 6 -10 20l52 167q4 11 15 11q10 0 14 -11l53 -167q3 -15 -10 -20h-5z" />
    <glyph glyph-name="underscore" unicode="_" horiz-adv-x="236" 
d="M170 0h-105q-6 0 -10.5 4.5t-4.5 11.5q0 6 4.5 10.5t10.5 4.5h105q6 0 10.5 -4.5t4.5 -10.5q0 -7 -4.5 -11.5t-10.5 -4.5z" />
    <glyph glyph-name="grave" unicode="`" horiz-adv-x="166" 
d="M96 676q-7 2 -10 6l-31 42q-10 12 3 21t21 -3l31 -42q9 -12 -3 -21q-5 -5 -11 -3z" />
    <glyph glyph-name="a" unicode="a" horiz-adv-x="237" 
d="M118 0q-28 0 -48 19.5t-20 47.5v75q0 28 20 48t48 20q20 0 37 -11v123q0 16 -11 26.5t-26 10.5q-16 0 -26.5 -10.5t-10.5 -26.5q0 -6 -4.5 -10.5t-10.5 -4.5q-7 0 -11.5 4.5t-4.5 10.5q0 28 20 48t48 20t47.5 -20t19.5 -48v-255q0 -28 -19.5 -47.5t-47.5 -19.5zM118 179
q-16 0 -26.5 -10.5t-10.5 -26.5v-75q0 -15 10.5 -26t26.5 -11q15 0 26 11t11 26v75q0 16 -11 26.5t-26 10.5z" />
    <glyph glyph-name="b" unicode="b" horiz-adv-x="237" 
d="M118 0q-28 0 -48 19.5t-20 47.5v667q0 7 4.5 11.5t10.5 4.5q16 0 16 -16v-355q16 11 37 11q28 0 47.5 -20t19.5 -48v-255q0 -28 -19.5 -47.5t-47.5 -19.5zM81 322v-255q0 -15 10.5 -26t26.5 -11q15 0 26 11t11 26v255q0 16 -11 26.5t-26 10.5q-16 0 -26.5 -10.5
t-10.5 -26.5z" />
    <glyph glyph-name="c" unicode="c" horiz-adv-x="236" 
d="M117 0q-28 0 -47.5 19.5t-19.5 47.5v255q0 28 19.5 48t47.5 20t48 -20t20 -48q0 -6 -4.5 -10.5t-10.5 -4.5q-7 0 -11.5 4.5t-4.5 10.5q0 16 -10.5 26.5t-26.5 10.5q-15 0 -26 -10.5t-11 -26.5v-255q0 -15 11 -26t26 -11q16 0 26.5 11t10.5 26t16 15q15 0 15 -15
q0 -28 -20 -47.5t-48 -19.5z" />
    <glyph glyph-name="d" unicode="d" horiz-adv-x="237" 
d="M118 0q-28 0 -48 19.5t-20 47.5v255q0 28 20 48t48 20q20 0 37 -11v355q0 7 4.5 11.5t10.5 4.5t10.5 -4.5t4.5 -11.5v-667q0 -28 -19.5 -47.5t-47.5 -19.5zM118 359q-16 0 -27 -10.5t-11 -26.5v-255q0 -15 11 -26t27 -11q15 0 26 11t11 26v255q0 16 -11 26.5t-26 10.5z
" />
    <glyph glyph-name="e" unicode="e" horiz-adv-x="236" 
d="M170 179h-89v-112q0 -15 10.5 -26t26.5 -11q15 0 26 11t11 26t15 15q16 0 16 -15q0 -28 -20 -47.5t-48 -19.5t-48 19.5t-20 47.5v255q0 28 20 48t48 20t48 -20t20 -48v-127q0 -16 -16 -16zM118 359q-16 0 -26.5 -10.5t-10.5 -26.5v-112h74v112q0 16 -11 26.5t-26 10.5z
" />
    <glyph glyph-name="f" unicode="f" horiz-adv-x="210" 
d="M169 390q16 0 16 -16q0 -6 -4.5 -10.5t-11.5 -4.5h-89v-292q0 -15 11 -26t26 -11t15 -15t-15 -15q-28 0 -47.5 19.5t-19.5 47.5v615q0 28 19.5 48t47.5 20t48 -20t20 -48q0 -6 -4.5 -10.5t-11.5 -4.5q-6 0 -10.5 4.5t-4.5 10.5q0 15 -10.5 26t-26.5 11q-15 0 -26 -11
t-11 -26v-292h89z" />
    <glyph glyph-name="g" unicode="g" 
d="M117 390q29 0 48.5 -20t19.5 -48v-221v-34v-180q0 -28 -20 -47.5t-48 -19.5t-47.5 19.5t-19.5 47.5v38q0 15 15 15q6 0 10.5 -4.5t4.5 -10.5v-38q0 -15 11 -26t26 -11q16 0 26.5 11t10.5 26v124q-16 -11 -37 -11q-28 0 -47.5 19.5t-19.5 47.5v255q0 28 19.5 48t47.5 20z
M117 30q16 0 26.5 11t10.5 26v34v221q0 16 -10.5 26.5t-26.5 10.5q-15 0 -26 -10.5t-11 -26.5v-255q0 -15 11 -26t26 -11z" />
    <glyph glyph-name="h" unicode="h" horiz-adv-x="237" 
d="M117 390q28 0 48 -20t20 -48v-307q0 -15 -15 -15t-15 15v307q0 16 -11 26.5t-27 10.5q-15 0 -26 -10.5t-11 -26.5v-47v-260q0 -15 -15 -15t-15 15v260v47v412q0 7 4.5 11.5t10.5 4.5q15 0 15 -16v-355q17 11 37 11z" />
    <glyph glyph-name="i" unicode="i" horiz-adv-x="130" 
d="M65 390q6 0 10.5 -4.5t4.5 -10.5v-360q0 -15 -15 -15t-15 15v360q0 6 4.5 10.5t10.5 4.5zM65 519q6 0 10.5 -4.5t4.5 -10.5v-52q0 -6 -4.5 -10.5t-10.5 -4.5t-10.5 4.5t-4.5 10.5v52q0 6 4.5 10.5t10.5 4.5z" />
    <glyph glyph-name="j" unicode="j" horiz-adv-x="185" 
d="M68 -180q-28 0 -48 19.5t-20 47.5v38q0 6 4.5 10.5t10.5 4.5q7 0 11.5 -4.5t4.5 -10.5v-38q0 -15 10.5 -26t26.5 -11q15 0 26 11t11 26v488q0 6 4.5 10.5t10.5 4.5q15 0 15 -15v-488q0 -28 -19.5 -47.5t-47.5 -19.5zM120 437q-6 0 -10.5 4.5t-4.5 10.5v52q0 6 4.5 10.5
t10.5 4.5q15 0 15 -15v-52q0 -15 -15 -15z" />
    <glyph glyph-name="k" unicode="k" horiz-adv-x="234" 
d="M111 243l73 -224q5 -14 -9 -19h-5q-10 0 -15 10l-64 198l-11 -17v-176q0 -15 -15 -15t-15 15v719q0 7 4.5 11.5t10.5 4.5q15 0 15 -16v-483l77 131q7 13 21 6q12 -9 5 -21z" />
    <glyph glyph-name="l" unicode="l" horiz-adv-x="187" 
d="M118 0q-28 0 -48 19.5t-20 47.5v667q0 7 4.5 11.5t10.5 4.5q15 0 15 -16v-667q0 -15 11 -26t27 -11q6 0 10.5 -4.5t4.5 -10.5q0 -15 -15 -15z" />
    <glyph glyph-name="m" unicode="m" horiz-adv-x="340" 
d="M222 390q28 0 48 -20t20 -48v-307q0 -15 -15 -15q-16 0 -16 15v307q0 16 -10.5 26.5t-26.5 10.5q-15 0 -26 -10.5t-11 -26.5v-307q0 -15 -15 -15t-15 15v307q0 16 -11 26.5t-27 10.5q-15 0 -26 -10.5t-11 -26.5v-307q0 -15 -15 -15t-15 15v307q0 28 19.5 48t47.5 20
q31 0 53 -25q20 25 52 25z" />
    <glyph glyph-name="n" unicode="n" horiz-adv-x="236" 
d="M170 0q-15 0 -15 15v307q0 16 -11 26.5t-26 10.5q-16 0 -26.5 -10.5t-10.5 -26.5v-307q0 -15 -15 -15q-16 0 -16 15v307q0 28 20 48t48 20t48 -20t20 -48v-307q0 -15 -16 -15z" />
    <glyph glyph-name="o" unicode="o" 
d="M118 0q-28 0 -48 19.5t-20 47.5v255q0 28 20 48t48 20t47.5 -20t19.5 -48v-255q0 -28 -19.5 -47.5t-47.5 -19.5zM118 359q-16 0 -27 -10.5t-11 -26.5v-255q0 -15 11 -26t27 -11q15 0 26 11t11 26v255q0 16 -11 26.5t-26 10.5z" />
    <glyph glyph-name="p" unicode="p" 
d="M65 -180q-6 0 -10.5 4.5t-4.5 10.5v487q0 28 19.5 48t47.5 20q29 0 48.5 -20t19.5 -48v-255q0 -28 -20 -47.5t-48 -19.5q-20 0 -37 11v-176q0 -15 -15 -15zM80 67q0 -15 11 -26t26 -11q16 0 27 11t11 26v255q0 16 -11 26.5t-27 10.5q-15 0 -26 -10.5t-11 -26.5v-255z" />
    <glyph glyph-name="q" unicode="q" 
d="M170 -180q-6 0 -10.5 4.5t-4.5 10.5v176q-17 -11 -37 -11q-28 0 -48 19.5t-20 47.5v255q0 28 20 48t48 20t47.5 -20t19.5 -48v-487q0 -6 -4.5 -10.5t-10.5 -4.5zM118 359q-16 0 -27 -10.5t-11 -26.5v-255q0 -15 11 -26t27 -11q15 0 26 11t11 26v255q0 16 -11 26.5
t-26 10.5z" />
    <glyph glyph-name="r" unicode="r" horiz-adv-x="220" 
d="M65 0q-15 0 -15 15v307q0 28 19.5 48t47.5 20t48 -20t20 -48q0 -6 -4.5 -10.5t-10.5 -4.5q-15 0 -15 15q0 16 -11 26.5t-27 10.5q-15 0 -26 -10.5t-11 -26.5v-307q0 -15 -15 -15z" />
    <glyph glyph-name="s" unicode="s" horiz-adv-x="236" 
d="M118 0q-28 0 -48 19.5t-20 47.5q0 6 4.5 10.5t11.5 4.5q6 0 10.5 -4.5t4.5 -10.5q0 -15 10.5 -26t26.5 -11q15 0 25.5 10t11.5 24l-103 252q-2 4 -2 6q0 28 20 48t48 20t48 -20t20 -48q0 -6 -4.5 -10.5t-11.5 -4.5q-6 0 -10.5 4.5t-4.5 10.5q0 16 -11 26.5t-26 10.5
t-25.5 -10t-11.5 -24l103 -252q2 -4 2 -6q0 -28 -20 -47.5t-48 -19.5z" />
    <glyph glyph-name="t" unicode="t" horiz-adv-x="202" 
d="M150 30q7 0 11.5 -4.5t4.5 -10.5q0 -15 -16 -15q-28 0 -47.5 19.5t-19.5 47.5v178v77v37h-37q-16 0 -16 16q0 6 4.5 10.5t11.5 4.5h37v344q0 7 4.5 11.5t10.5 4.5t10.5 -4.5t4.5 -11.5v-344h37q15 0 15 -15q0 -16 -15 -16h-37v-37v-77v-178q0 -15 11 -26t26 -11z" />
    <glyph glyph-name="u" unicode="u" 
d="M117 0q-28 0 -47.5 19.5t-19.5 47.5v308q0 6 4.5 10.5t10.5 4.5t10.5 -4.5t4.5 -10.5v-308q0 -15 11 -26t26 -11q16 0 26.5 11t10.5 26v308q0 6 4.5 10.5t11.5 4.5q6 0 10.5 -4.5t4.5 -10.5v-308q0 -28 -20 -47.5t-48 -19.5z" />
    <glyph glyph-name="v" unicode="v" horiz-adv-x="236" 
d="M118 0q-12 0 -15 13l-52 359q-2 14 13 18q15 2 17 -13l37 -257l38 257q2 15 17 13q15 -4 13 -18l-52 -359q-3 -13 -16 -13z" />
    <glyph glyph-name="w" unicode="w" horiz-adv-x="340" 
d="M275 390q6 0 10.5 -4.5t4.5 -10.5v-308q0 -28 -20 -47.5t-48 -19.5q-33 0 -52 24q-19 -24 -52 -24q-28 0 -48 19.5t-20 47.5v308q0 6 4.5 10.5t10.5 4.5q15 0 15 -15v-308q0 -15 11 -26t27 -11q15 0 26 11t11 26v308q0 6 4.5 10.5t10.5 4.5t10.5 -4.5t4.5 -10.5v-308
q0 -15 11 -26t26 -11q16 0 27 11t11 26v308q0 15 15 15z" />
    <glyph glyph-name="x" unicode="x" 
d="M135 195l51 -176q2 -6 -1 -11.5t-9 -7.5h-4q-12 0 -15 10l-37 130l-38 -130q-3 -10 -15 -10h-4q-6 2 -9 7.5t-1 11.5l51 176l-51 175q-2 6 1 11.5t9 7.5q14 3 19 -10l38 -130l37 130q5 13 19 10q6 -2 9 -7.5t1 -11.5z" />
    <glyph glyph-name="y" unicode="y" 
d="M170 390q6 0 10.5 -4.5t4.5 -10.5v-233v-75v-180q0 -28 -20 -47.5t-48 -19.5t-47.5 19.5t-19.5 47.5v38q0 15 15 15q6 0 10.5 -4.5t4.5 -10.5v-38q0 -15 11 -26t26 -11q16 0 26.5 11t10.5 26v124q-16 -11 -37 -11q-28 0 -47.5 19.5t-19.5 47.5v308q0 15 15 15
q6 0 10.5 -4.5t4.5 -10.5v-308q0 -15 11 -26t26 -11q16 0 26.5 11t10.5 26v75v233q0 6 4.5 10.5t11.5 4.5z" />
    <glyph glyph-name="z" unicode="z" horiz-adv-x="236" 
d="M170 0h-104q-8 0 -13 6q-4 5 -2 13l99 340h-84q-16 0 -16 16q0 6 4.5 10.5t11.5 4.5h104q8 0 12 -6q5 -6 3 -14l-99 -340h84q15 0 15 -15t-15 -15z" />
    <glyph glyph-name="braceleft" unicode="{" 
d="M170 0q-28 0 -47.5 19.5t-19.5 47.5v255q0 16 -11 26.5t-26 11.5q-16 0 -16 15q0 6 4.5 10.5t11.5 4.5v0v0q15 0 26 11t11 26v255q0 28 19.5 48t47.5 20q15 0 15 -15q0 -16 -15 -16t-26 -10.5t-11 -26.5v-255q0 -32 -25 -52l5 -5q20 -20 20 -48v-255q0 -15 11 -26t26 -11
t15 -15t-15 -15z" />
    <glyph glyph-name="bar" unicode="|" horiz-adv-x="130" 
d="M65 -37q-6 0 -10.5 4.5t-4.5 10.5v791q0 15 15 15t15 -15v-791q0 -15 -15 -15z" />
    <glyph glyph-name="braceright" unicode="}" 
d="M65 0q-6 0 -10.5 4.5t-4.5 10.5t4.5 10.5t10.5 4.5q16 0 27 11t11 26v255q0 32 24 53q-3 3 -5 4q-19 21 -19 48v255q0 16 -11 26.5t-27 10.5q-6 0 -10.5 4.5t-4.5 11.5q0 6 4.5 10.5t10.5 4.5q28 0 48 -20t20 -48v-255q0 -15 10.5 -26t26.5 -11q6 0 10.5 -4.5t4.5 -10.5
q0 -15 -15 -15v0q-15 0 -26 -11t-11 -27v-255q0 -28 -20 -47.5t-48 -19.5z" />
    <glyph glyph-name="asciitilde" unicode="~" horiz-adv-x="380" 
d="M261 221q-5 0 -9 3l-139 102q-14 -2 -23.5 -12.5t-9.5 -24.5q0 -16 11 -26.5t27 -10.5q6 0 10.5 -4.5t4.5 -11.5q0 -6 -4.5 -10.5t-10.5 -4.5q-28 0 -48 20t-20 48t20 47.5t48 19.5q4 0 9 -3l139 -101q14 2 23 12.5t9 24.5q0 15 -11 26t-26 11q-6 0 -10.5 4.5t-4.5 10.5
q0 15 15 15q28 0 48 -19.5t20 -47.5t-20 -48t-48 -20z" />
    <glyph glyph-name="exclamdown" unicode="&#xa1;" horiz-adv-x="131" 
d="M66 750q6 0 10.5 -4.5t4.5 -10.5v-52q0 -6 -4.5 -10.5t-10.5 -4.5q-7 0 -11.5 4.5t-4.5 10.5v52q0 6 4.5 10.5t11.5 4.5zM66 635q6 0 10.5 -4.5t4.5 -10.5v-605q0 -6 -4.5 -10.5t-10.5 -4.5q-7 0 -11.5 4.5t-4.5 10.5v605q0 6 4.5 10.5t11.5 4.5z" />
    <glyph glyph-name="cent" unicode="&#xa2;" 
d="M169 123q7 0 11.5 -4.5t4.5 -10.5q0 -24 -15 -42.5t-38 -23.5v-27q0 -15 -15 -15q-6 0 -10.5 4.5t-4.5 10.5v27q-23 5 -37.5 23.5t-14.5 42.5v255q0 24 14.5 42.5t37.5 23.5v32q0 6 4.5 10.5t10.5 4.5q15 0 15 -15v-32q23 -5 38 -23.5t15 -42.5q0 -6 -4.5 -10.5
t-11.5 -4.5q-6 0 -10.5 4.5t-4.5 10.5q0 15 -10.5 26t-26.5 11q-15 0 -26 -11t-11 -26v-255q0 -16 11 -26.5t26 -10.5q16 0 26.5 10.5t10.5 26.5q0 6 4.5 10.5t10.5 4.5z" />
    <glyph glyph-name="sterling" unicode="&#xa3;" horiz-adv-x="265" 
d="M120 360v-292q0 -21 -11 -38h101q15 0 15 -15q0 -6 -4.5 -10.5t-10.5 -4.5h-158q-6 0 -10.5 4.5t-4.5 10.5q0 15 15 15q16 0 27 11t11 27v292h-38q-6 0 -10.5 4.5t-4.5 10.5t4.5 10.5t10.5 4.5h38v292q0 28 19.5 48t47.5 20t48 -20t20 -48q0 -6 -4.5 -10.5t-10.5 -4.5
q-7 0 -11.5 4.5t-4.5 10.5q0 16 -10.5 27t-26.5 11q-15 0 -26 -11t-11 -27v-292h90q6 0 10.5 -4.5t4.5 -10.5t-4.5 -10.5t-10.5 -4.5h-90z" />
    <glyph glyph-name="yen" unicode="&#xa5;" horiz-adv-x="221" 
d="M154 336q6 0 10.5 -4.5t4.5 -10.5q0 -15 -15 -15h-37v-291q0 -15 -15 -15q-16 0 -16 15v291h-37q-15 0 -15 15q0 6 4.5 10.5t10.5 4.5h37v29h-37q-15 0 -15 15q0 6 4.5 10.5t10.5 4.5h34l-49 337q-2 15 13 17q6 1 11 -2.5t6 -9.5l38 -261l37 261q1 6 6 9.5t11 2.5
q15 -2 13 -17l-48 -337h33q6 0 10.5 -4.5t4.5 -10.5q0 -15 -15 -15h-37v-29h37z" />
    <glyph glyph-name="copyright" unicode="&#xa9;" horiz-adv-x="833" 
 />
    <glyph glyph-name="degree" unicode="&#xb0;" horiz-adv-x="210" 
d="M105 639q-23 0 -39 16.5t-16 38.5q0 23 16 39.5t39 16.5t39.5 -16.5t16.5 -39.5t-16.5 -39t-39.5 -16zM105 720q-10 0 -17.5 -7.5t-7.5 -18.5q0 -10 7 -17.5t18 -7.5t18.5 7.5t7.5 17.5t-7.5 18t-18.5 8z" />
    <glyph glyph-name="plusminus" unicode="&#xb1;" horiz-adv-x="833" 
 />
    <glyph glyph-name="mu" unicode="&#xb5;" horiz-adv-x="236" 
d="M170 390q7 0 11.5 -4.5t4.5 -10.5v-308q0 -28 -20 -47.5t-48 -19.5q-20 0 -37 11v-70q0 -15 -15 -15q-16 0 -16 15v126v121v187q0 6 4.5 10.5t11.5 4.5q6 0 10.5 -4.5t4.5 -10.5v-187v-121q0 -15 11 -26t26 -11q16 0 26.5 11t10.5 26v308q0 6 4.5 10.5t10.5 4.5z" />
    <glyph glyph-name="mu" unicode="&#x3bc;" horiz-adv-x="236" 
d="M170 390q7 0 11.5 -4.5t4.5 -10.5v-308q0 -28 -20 -47.5t-48 -19.5q-20 0 -37 11v-70q0 -15 -15 -15q-16 0 -16 15v126v121v187q0 6 4.5 10.5t11.5 4.5q6 0 10.5 -4.5t4.5 -10.5v-187v-121q0 -15 11 -26t26 -11q16 0 26.5 11t10.5 26v308q0 6 4.5 10.5t10.5 4.5z" />
    <glyph glyph-name="questiondown" unicode="&#xbf;" horiz-adv-x="236" 
d="M118 668q-15 0 -15 15v52q0 15 15 15q6 0 10.5 -4.5t4.5 -10.5v-52q0 -6 -4.5 -10.5t-10.5 -4.5zM50 67v0v3l53 306v244q0 15 15 15q6 0 10.5 -4.5t4.5 -10.5v-245v-3l-52 -305q0 -16 11 -26.5t26 -10.5t26 11t11 26q0 7 4.5 11.5t10.5 4.5t10.5 -4.5t4.5 -11.5
q0 -28 -19.5 -47.5t-47.5 -19.5t-48 19.5t-20 47.5v0z" />
    <glyph glyph-name="Agrave" unicode="&#xc0;" horiz-adv-x="240" 
d="M185 680v-69v-596q0 -6 -4.5 -10.5t-10.5 -4.5t-10.5 4.5t-4.5 10.5v344h-74v-344q0 -6 -4.5 -10.5t-10.5 -4.5q-15 0 -15 15v665q0 28 19.5 47.5t47.5 19.5t47.5 -19.5t19.5 -47.5zM81 389h74v27v264q0 15 -11 26t-26 11q-16 0 -26.5 -11t-10.5 -26v-291zM125 816
l-36 36q-11 11 0 22q11 9 21 0l37 -37q11 -11 0 -21q-5 -5 -11 -5t-11 5z" />
    <glyph glyph-name="Aacute" unicode="&#xc1;" horiz-adv-x="240" 
d="M185 680v-69v-596q0 -15 -15 -15q-6 0 -10.5 4.5t-4.5 10.5v344h-74v-344q0 -6 -4.5 -10.5t-10.5 -4.5t-10.5 4.5t-4.5 10.5v665q0 28 19.5 47.5t47.5 19.5t47.5 -19.5t19.5 -47.5zM81 389h74v27v264q0 15 -10.5 26t-26.5 11q-15 0 -26 -11t-11 -26v-291zM100 811
q-6 0 -11 5q-11 10 0 21l37 37q10 10 21 0q11 -11 0 -22l-36 -36q-5 -5 -11 -5z" />
    <glyph glyph-name="Acircumflex" unicode="&#xc2;" horiz-adv-x="240" 
d="M185 680v-69v-596q0 -15 -15 -15q-6 0 -10.5 4.5t-4.5 10.5v344h-74v-344q0 -6 -4.5 -10.5t-10.5 -4.5q-15 0 -15 15v665q0 28 19.5 47.5t47.5 19.5t47.5 -19.5t19.5 -47.5zM81 389h74v27v264q0 16 -11 26.5t-26 10.5t-26 -10.5t-11 -26.5v-291zM101 819q-10 -12 -22 -2
t-2 21l29 35q5 5 12 5t12 -5l29 -35q10 -11 -2 -21q-4 -4 -10 -4q-7 0 -12 6l-17 20z" />
    <glyph glyph-name="Atilde" unicode="&#xc3;" horiz-adv-x="240" 
d="M185 682v-69v-598q0 -15 -15 -15q-6 0 -10.5 4.5t-4.5 10.5v345h-74v-345q0 -6 -4.5 -10.5t-11.5 -4.5q-6 0 -10.5 4.5t-4.5 10.5v667q0 28 20 48t48 20t47.5 -20t19.5 -48zM81 390h74v27v265q0 16 -11 27t-26 11q-16 0 -26.5 -11t-10.5 -27v-292zM93 819q-12 0 -20.5 9
t-8.5 21t8.5 20.5t20.5 8.5q2 0 6 -2l46 -36q6 2 6 9q0 9 -9 9q-10 0 -10 10t10 10q13 0 21.5 -8.5t8.5 -20.5t-8.5 -21t-21.5 -9q-3 0 -6 3l-46 35q-6 -2 -6 -8q0 -9 9 -9q10 0 10 -10q0 -11 -10 -11z" />
    <glyph glyph-name="Adieresis" unicode="&#xc4;" horiz-adv-x="240" 
d="M185 680v-69v-596q0 -15 -15 -15q-6 0 -10.5 4.5t-4.5 10.5v344h-74v-344q0 -6 -4.5 -10.5t-10.5 -4.5t-10.5 4.5t-4.5 10.5v665q0 28 19.5 47.5t47.5 19.5t47.5 -19.5t19.5 -47.5zM81 389h74v27v264q0 15 -11 26t-26 11t-26 -11t-11 -26v-291zM89 813q-6 0 -10.5 4.5
t-4.5 10.5v35q0 6 4.5 10.5t10.5 4.5t10.5 -4.5t4.5 -10.5v-35q0 -6 -4.5 -10.5t-10.5 -4.5zM147 813q-6 0 -10.5 4.5t-4.5 10.5v35q0 6 4.5 10.5t10.5 4.5t10.5 -4.5t4.5 -10.5v-35q0 -6 -4.5 -10.5t-10.5 -4.5z" />
    <glyph glyph-name="Aring" unicode="&#xc5;" horiz-adv-x="240" 
d="M186 678v-69v-594q0 -6 -4.5 -10.5t-11.5 -4.5q-6 0 -10.5 4.5t-4.5 10.5v343h-74v-343q0 -15 -15 -15q-6 0 -10.5 4.5t-4.5 10.5v663q0 28 19.5 47.5t47.5 19.5t48 -19.5t20 -47.5zM81 388h74v27v263q0 15 -10.5 26t-26.5 11q-15 0 -26 -11t-11 -26v-290zM118 808
q-14 0 -24.5 10.5t-10.5 24.5t10.5 24.5t24.5 10.5q15 0 25 -10.5t10 -24.5t-10 -24.5t-25 -10.5zM118 858q-14 0 -14 -15t14 -15q15 0 15 15t-15 15z" />
    <glyph glyph-name="AE" unicode="&#xc6;" horiz-adv-x="340" 
d="M275 359h-90v-292q0 -15 11 -26t26 -11q16 0 27 11t11 26t15 15t15 -15q0 -28 -20 -47.5t-48 -19.5t-47.5 19.5t-19.5 47.5v292h-75v-344q0 -15 -15 -15t-15 15v667q0 28 20 48t48 20q32 0 52 -25q20 25 52 25q28 0 48 -20t20 -48q0 -6 -4.5 -10.5t-10.5 -4.5
q-15 0 -15 15q0 16 -11 26.5t-27 10.5q-15 0 -26 -10.5t-11 -26.5v-292h90q6 0 10.5 -4.5t4.5 -10.5q0 -7 -4.5 -11.5t-10.5 -4.5zM80 682v-292h75v27v265q0 16 -11 26.5t-26 10.5q-16 0 -27 -10.5t-11 -26.5z" />
    <glyph glyph-name="Ccedilla" unicode="&#xc7;" horiz-adv-x="239" 
d="M170 82q6 0 10.5 -4.5t4.5 -10.5q0 -26 -17 -45t-42 -23l-8 -20q19 -9 19 -31q0 -14 -9.5 -23.5t-23.5 -9.5q-10 0 -10 10t10 10q12 0 12 13q0 14 -12 14h-1h-1h-1q0 1 -1 1v0h-1v1h-1h-1v1l-1 1l-1 1v0v1l-1 1v1v0v1v1v0v1v1v1v1h1l9 24q-23 5 -38.5 23.5t-15.5 43.5
v614q0 28 19.5 48t47.5 20q29 0 48.5 -19.5t19.5 -48.5q0 -6 -4.5 -10.5t-10.5 -4.5q-7 0 -11.5 4.5t-4.5 10.5q0 16 -10.5 27t-26.5 11q-15 0 -26 -11t-11 -27v-614q0 -16 11 -27t26 -11q16 0 26.5 11t10.5 27q0 6 4.5 10.5t11.5 4.5z" />
    <glyph glyph-name="Egrave" unicode="&#xc8;" horiz-adv-x="240" 
d="M170 359h-89v-291q0 -16 10.5 -26.5t26.5 -10.5q15 0 26 10.5t11 26.5q0 6 4.5 10.5t10.5 4.5t10.5 -4.5t4.5 -10.5q0 -28 -19.5 -48t-47.5 -20t-48 20t-20 48v612q0 28 20 47.5t48 19.5t47.5 -19.5t19.5 -47.5q0 -6 -4.5 -10.5t-10.5 -4.5t-10.5 4.5t-4.5 10.5
q0 15 -11 26t-26 11q-16 0 -26.5 -11t-10.5 -26v-291h89q6 0 10.5 -4.5t4.5 -10.5q0 -15 -15 -15zM125 816l-36 36q-11 11 0 22q11 9 21 0l37 -37q11 -11 0 -21q-5 -5 -11 -5t-11 5z" />
    <glyph glyph-name="Eacute" unicode="&#xc9;" horiz-adv-x="240" 
d="M170 359h-89v-291q0 -16 10.5 -26.5t26.5 -10.5q15 0 26 10.5t11 26.5q0 15 15 15q6 0 10.5 -4.5t4.5 -10.5q0 -28 -19.5 -48t-47.5 -20t-48 20t-20 48v612q0 28 20 47.5t48 19.5t47.5 -19.5t19.5 -47.5q0 -6 -4.5 -10.5t-10.5 -4.5q-15 0 -15 15t-11 26t-26 11
q-16 0 -26.5 -11t-10.5 -26v-291h89q6 0 10.5 -4.5t4.5 -10.5q0 -15 -15 -15zM99 811q-5 0 -10 5q-11 10 0 21l36 37q11 10 21 0q11 -11 0 -22l-36 -36q-5 -5 -11 -5z" />
    <glyph glyph-name="Ecircumflex" unicode="&#xca;" horiz-adv-x="240" 
d="M169 359h-89v-291q0 -16 11 -26.5t26 -10.5q16 0 26.5 10.5t10.5 26.5q0 6 4.5 10.5t10.5 4.5q15 0 15 -15q0 -28 -19.5 -48t-47.5 -20t-47.5 20t-19.5 48v612q0 28 19.5 47.5t47.5 19.5t47.5 -19.5t19.5 -47.5q0 -15 -15 -15q-6 0 -10.5 4.5t-4.5 10.5q0 16 -10.5 26.5
t-26.5 10.5q-15 0 -26 -10.5t-11 -26.5v-291h89q15 0 15 -15t-15 -15zM100 819q-10 -12 -22 -2t-1 21l28 35q5 5 12.5 5t11.5 -5l29 -35q10 -11 -2 -21q-4 -4 -10 -4q-8 0 -12 6l-17 20z" />
    <glyph glyph-name="Edieresis" unicode="&#xcb;" horiz-adv-x="240" 
d="M169 359h-89v-291q0 -16 10.5 -26.5t26.5 -10.5q15 0 26 10.5t11 26.5q0 6 4.5 10.5t10.5 4.5t10.5 -4.5t4.5 -10.5q0 -28 -19.5 -48t-47.5 -20t-47.5 20t-19.5 48v612q0 28 19.5 47.5t47.5 19.5t47.5 -19.5t19.5 -47.5q0 -6 -4.5 -10.5t-10.5 -4.5t-10.5 4.5t-4.5 10.5
q0 15 -11 26t-26 11q-16 0 -26.5 -11t-10.5 -26v-291h89q6 0 10.5 -4.5t4.5 -10.5q0 -15 -15 -15zM88 813q-6 0 -10.5 4.5t-4.5 10.5v35q0 6 4.5 10.5t10.5 4.5t10.5 -4.5t4.5 -10.5v-35q0 -6 -4.5 -10.5t-10.5 -4.5zM146 813q-15 0 -15 15v35q0 15 15 15q6 0 10.5 -4.5
t4.5 -10.5v-35q0 -6 -4.5 -10.5t-10.5 -4.5z" />
    <glyph glyph-name="Igrave" unicode="&#xcc;" horiz-adv-x="130" 
d="M66 0q-6 0 -10.5 4.5t-4.5 10.5v717q0 6 4.5 10.5t10.5 4.5q15 0 15 -15v-717q0 -15 -15 -15zM66 811q-5 0 -10 5l-37 36q-11 11 0 22q11 9 22 0l36 -37q11 -11 0 -21q-5 -5 -11 -5z" />
    <glyph glyph-name="Iacute" unicode="&#xcd;" horiz-adv-x="130" 
d="M66 0q-6 0 -10.5 4.5t-4.5 10.5v717q0 6 4.5 10.5t10.5 4.5t10.5 -4.5t4.5 -10.5v-717q0 -6 -4.5 -10.5t-10.5 -4.5zM66 811q-6 0 -11 5q-11 10 0 21l37 37q11 9 21 0q11 -11 0 -22l-36 -36q-5 -5 -11 -5z" />
    <glyph glyph-name="Icircumflex" unicode="&#xce;" horiz-adv-x="130" 
d="M66 747q15 0 15 -15v-717q0 -6 -4.5 -10.5t-10.5 -4.5t-10.5 4.5t-4.5 10.5v717q0 15 15 15zM107 838q10 -11 -2 -21q-4 -4 -10 -4q-7 0 -12 6l-17 20l-17 -20q-10 -12 -22 -2t-1 21l28 35q5 5 12.5 5t11.5 -5z" />
    <glyph glyph-name="Idieresis" unicode="&#xcf;" horiz-adv-x="130" 
d="M65 0q-6 0 -10.5 4.5t-4.5 10.5v717q0 6 4.5 10.5t10.5 4.5q7 0 11.5 -4.5t4.5 -10.5v-717q0 -6 -4.5 -10.5t-11.5 -4.5zM37 813q-7 0 -11.5 4.5t-4.5 10.5v35q0 6 4.5 10.5t11.5 4.5q6 0 10.5 -4.5t4.5 -10.5v-35q0 -6 -4.5 -10.5t-10.5 -4.5zM94 813q-6 0 -10.5 4.5
t-4.5 10.5v35q0 6 4.5 10.5t10.5 4.5q7 0 11.5 -4.5t4.5 -10.5v-35q0 -6 -4.5 -10.5t-11.5 -4.5z" />
    <glyph glyph-name="Eth" unicode="&#xd0;" horiz-adv-x="250" 
d="M128 750q28 0 48 -20t20 -48v-615q0 -28 -20 -47.5t-48 -19.5h-52q-15 0 -15 15v344h-27q-15 0 -15 16q0 15 15 15h27v344q0 7 4.5 11.5t10.5 4.5h52zM166 67v615q0 16 -11 26.5t-27 10.5h-37v-329h27q7 0 11.5 -4.5t4.5 -10.5q0 -16 -16 -16h-27v-329h37q16 0 27 11
t11 26z" />
    <glyph glyph-name="Ntilde" unicode="&#xd1;" horiz-adv-x="236" 
d="M170 750q6 0 10.5 -4.5t4.5 -10.5v-720q0 -6 -4.5 -10.5t-10.5 -4.5q-15 0 -15 15v358l-75 255v-613q0 -6 -4.5 -10.5t-10.5 -4.5t-10.5 4.5t-4.5 10.5v720q0 13 13 15t17 -11l75 -257v253q0 15 15 15zM93 819q-12 0 -20.5 9t-8.5 21t8.5 20.5t20.5 8.5q2 0 6 -2l46 -36
q6 2 6 9q0 9 -9 9q-10 0 -10 10t10 10q12 0 20.5 -8.5t8.5 -20.5t-8.5 -21t-20.5 -9q-3 0 -6 3l-46 35q-6 -1 -6 -8q0 -9 9 -9q10 0 10 -10q0 -11 -10 -11z" />
    <glyph glyph-name="Ograve" unicode="&#xd2;" horiz-adv-x="238" 
d="M118 747q28 0 48 -19.5t20 -47.5v-612q0 -28 -20 -48t-48 -20t-47.5 20t-19.5 48v612q0 28 19.5 47.5t47.5 19.5zM155 68v612q0 15 -10.5 26t-26.5 11q-15 0 -26 -11t-11 -26v-612q0 -16 11 -26.5t26 -10.5q16 0 26.5 10.5t10.5 26.5zM126 816l-37 36q-9 11 0 22
q11 9 22 0l36 -37q11 -11 0 -21q-5 -5 -11 -5q-5 0 -10 5z" />
    <glyph glyph-name="Oacute" unicode="&#xd3;" horiz-adv-x="238" 
d="M118 747q28 0 47.5 -19.5t19.5 -47.5v-612q0 -28 -19.5 -48t-47.5 -20t-48 20t-20 48v612q0 28 20 47.5t48 19.5zM155 68v612q0 15 -11 26t-26 11q-16 0 -26.5 -11t-10.5 -26v-612q0 -16 10.5 -26.5t26.5 -10.5q15 0 26 10.5t11 26.5zM99 811q-5 0 -10 5q-11 10 0 21
l36 37q11 10 21 0q11 -11 0 -22l-36 -36q-5 -5 -11 -5z" />
    <glyph glyph-name="Ocircumflex" unicode="&#xd4;" horiz-adv-x="238" 
d="M118 747q28 0 47.5 -19.5t19.5 -47.5v-612q0 -28 -19.5 -48t-47.5 -20t-48 20t-20 48v612q0 28 20 47.5t48 19.5zM155 68v612q0 16 -11 26.5t-26 10.5q-16 0 -26.5 -10.5t-10.5 -26.5v-612q0 -16 10.5 -26.5t26.5 -10.5q15 0 26 10.5t11 26.5zM100 819q-9 -12 -21 -2
t-2 21l29 35q5 5 12 5t11 -5l29 -35q11 -11 -2 -21q-3 -4 -9 -4q-7 0 -12 6l-17 20z" />
    <glyph glyph-name="Otilde" unicode="&#xd5;" horiz-adv-x="238" 
d="M118 750q28 0 48 -20t20 -48v-614q0 -28 -20 -48t-48 -20t-47.5 20t-19.5 48v614q0 28 19.5 48t47.5 20zM156 68v614q0 16 -11 27t-27 11q-15 0 -26 -11t-11 -27v-614q0 -16 11 -27t26 -11q16 0 27 11t11 27zM94 819q-12 0 -20.5 9t-8.5 21t8.5 20.5t20.5 8.5q2 0 6 -2
l46 -36q6 2 6 9q0 9 -9 9q-10 0 -10 10t10 10q12 0 20.5 -8.5t8.5 -20.5t-8.5 -21t-20.5 -9q-3 0 -6 3l-46 35q-6 -1 -6 -8q0 -9 9 -9q10 0 10 -10q0 -11 -10 -11z" />
    <glyph glyph-name="Odieresis" unicode="&#xd6;" horiz-adv-x="238" 
d="M118 747q28 0 48 -19.5t20 -47.5v-612q0 -28 -20 -48t-48 -20t-47.5 20t-19.5 48v612q0 28 19.5 47.5t47.5 19.5zM155 68v612q0 15 -10.5 26t-26.5 11q-15 0 -26 -11t-11 -26v-612q0 -16 11 -26.5t26 -10.5q16 0 26.5 10.5t10.5 26.5zM89 813q-6 0 -10.5 4.5t-4.5 10.5
v35q0 6 4.5 10.5t10.5 4.5q15 0 15 -15v-35q0 -15 -15 -15zM147 813q-6 0 -10.5 4.5t-4.5 10.5v35q0 6 4.5 10.5t10.5 4.5t10.5 -4.5t4.5 -10.5v-35q0 -6 -4.5 -10.5t-10.5 -4.5z" />
    <glyph glyph-name="multiply" unicode="&#xd7;" horiz-adv-x="204" 
d="M149 238q12 -11 1 -22q-10 -10 -22 1l-26 26l-27 -27q-11 -10 -21 0q-11 11 0 21l27 27l-26 26q-11 12 -1 22t22 0l26 -27l26 27q11 10 21 0q11 -11 0 -22l-26 -26z" />
    <glyph glyph-name="Oslash" unicode="&#xd8;" 
d="M177 714q8 -14 8 -31v-615q0 -28 -19.5 -48t-48.5 -20q-22 0 -42 15v-1q-2 -9 -10 -9h-1q-11 2 -9 12l3 19q-8 14 -8 32v615q0 28 19.5 47.5t47.5 19.5q23 0 43 -15v1q0 11 11 9t9 -12zM80 683v-493l73 502q-7 28 -36 28q-15 0 -26 -11t-11 -26zM117 30q16 0 26.5 11
t10.5 27v492l-73 -502q9 -28 36 -28z" />
    <glyph glyph-name="Ugrave" unicode="&#xd9;" horiz-adv-x="237" 
d="M169 747q15 0 15 -15v-664q0 -28 -19.5 -48t-47.5 -20t-47.5 20t-19.5 48v664q0 6 4.5 10.5t10.5 4.5t10.5 -4.5t4.5 -10.5v-664q0 -16 11 -26.5t26 -10.5q16 0 26.5 10.5t10.5 26.5v664q0 6 4.5 10.5t10.5 4.5zM125 816l-37 36q-11 11 0 22q11 9 22 0l36 -37
q10 -11 0 -21q-5 -5 -11 -5q-5 0 -10 5z" />
    <glyph glyph-name="Uacute" unicode="&#xda;" horiz-adv-x="237" 
d="M171 748q6 0 10.5 -4.5t4.5 -11.5v-664q0 -28 -20 -48t-48 -20t-47.5 20t-19.5 48v664q0 7 4.5 11.5t10.5 4.5q15 0 15 -16v-664q0 -16 11 -26.5t26 -10.5q16 0 26.5 10.5t10.5 26.5v664q0 16 16 16zM100 811q-7 0 -10 5q-10 10 0 21l36 37q10 9 21 0q11 -11 0 -22
l-36 -36q-5 -5 -11 -5z" />
    <glyph glyph-name="Ucircumflex" unicode="&#xdb;" horiz-adv-x="237" 
d="M169 747q16 0 16 -15v-664q0 -28 -20 -48t-48 -20t-47.5 20t-19.5 48v664q0 15 15 15t15 -15v-664q0 -16 11 -26.5t26 -10.5q16 0 26.5 10.5t10.5 26.5v664q0 15 15 15zM100 819q-10 -13 -21 -2q-13 10 -2 21l29 35q4 5 11.5 5t11.5 -5l29 -35q10 -11 -2 -21
q-4 -4 -10 -4t-11 6l-18 20z" />
    <glyph glyph-name="Udieresis" unicode="&#xdc;" horiz-adv-x="237" 
d="M170 747q15 0 15 -15v-664q0 -28 -19.5 -48t-47.5 -20t-47.5 20t-19.5 48v664q0 6 4.5 10.5t10.5 4.5t10.5 -4.5t4.5 -10.5v-664q0 -16 11 -26.5t26 -10.5q16 0 26.5 10.5t10.5 26.5v664q0 6 4.5 10.5t10.5 4.5zM89 813q-6 0 -10.5 4.5t-4.5 10.5v35q0 6 4.5 10.5
t10.5 4.5q15 0 15 -15v-35q0 -15 -15 -15zM147 813q-6 0 -10.5 4.5t-4.5 10.5v35q0 6 4.5 10.5t10.5 4.5t10.5 -4.5t4.5 -10.5v-35q0 -6 -4.5 -10.5t-10.5 -4.5z" />
    <glyph glyph-name="Yacute" unicode="&#xdd;" horiz-adv-x="221" 
d="M84 811q-6 0 -11 5q-11 10 0 21l36 37q11 9 22 0q9 -11 0 -22l-37 -36q-5 -5 -10 -5zM156 747q15 -2 13 -17l-52 -362v-353q0 -6 -4.5 -10.5t-10.5 -4.5q-15 0 -15 15v353l-52 362q-1 6 2.5 11t9.5 6q15 2 18 -13l37 -259l37 259q2 15 17 13z" />
    <glyph glyph-name="Thorn" unicode="&#xde;" horiz-adv-x="236" 
d="M118 570q28 0 48 -19.5t20 -47.5v-255q0 -28 -20 -48t-48 -20h-37v-165q0 -6 -4.5 -10.5t-10.5 -4.5q-7 0 -11.5 4.5t-4.5 10.5v720q0 6 4.5 10.5t11.5 4.5q6 0 10.5 -4.5t4.5 -10.5v-165h37zM155 248v255q0 15 -11 26t-26 11h-37v-330h37q15 0 26 11t11 27z" />
    <glyph glyph-name="germandbls" unicode="&#xdf;" 
d="M185 682v0v-176q0 -31 -25 -53q25 -20 25 -52v-334q0 -28 -19.5 -47.5t-47.5 -19.5q-7 0 -11.5 4.5t-4.5 10.5t4.5 10.5t11.5 4.5q15 0 26 11t11 26v334q0 16 -11 26.5t-26 10.5q-7 0 -11.5 4.5t-4.5 10.5q0 16 16 16v0q15 0 26 10.5t11 26.5v176q0 16 -11 26.5t-26 10.5
q-16 0 -27 -10.5t-11 -26.5v-667q0 -15 -15 -15q-6 0 -10.5 4.5t-4.5 10.5v667q0 28 20 48t48 20t47.5 -20t19.5 -48z" />
    <glyph glyph-name="agrave" unicode="&#xe0;" horiz-adv-x="237" 
d="M118 390q28 0 47.5 -19.5t19.5 -47.5v-255q0 -28 -19.5 -48t-47.5 -20t-48 20t-20 48v75q0 28 20 48t48 20q18 0 37 -12v124q0 15 -11 26t-26 11q-16 0 -26.5 -11t-10.5 -26t-16 -15q-15 0 -15 15q0 28 20 47.5t48 19.5zM155 68v75q0 16 -11 26.5t-26 10.5
q-16 0 -26.5 -10.5t-10.5 -26.5v-75q0 -16 10.5 -26.5t26.5 -10.5q15 0 26 10.5t11 26.5zM125 450l-36 37q-11 11 0 21t21 0l37 -36q11 -11 0 -22q-4 -4 -11 -4t-11 4z" />
    <glyph glyph-name="aacute" unicode="&#xe1;" horiz-adv-x="237" 
d="M118 390q28 0 47.5 -19.5t19.5 -47.5v-255q0 -28 -19.5 -48t-47.5 -20t-48 20t-20 48v75q0 28 20 48t48 20q18 0 37 -12v124q0 15 -11 26t-26 11q-16 0 -27 -11t-11 -26t-15 -15t-15 15q0 28 20 47.5t48 19.5zM155 68v75q0 16 -11 26.5t-26 10.5q-16 0 -27 -10.5
t-11 -26.5v-75q0 -16 11 -26.5t27 -10.5q15 0 26 10.5t11 26.5zM99 446q-7 0 -11 4q-11 11 0 22l37 36q11 10 21 0t0 -21l-36 -37q-4 -4 -11 -4z" />
    <glyph glyph-name="acircumflex" unicode="&#xe2;" horiz-adv-x="237" 
d="M118 390q28 0 48 -19.5t20 -47.5v-255q0 -28 -20 -48t-48 -20t-48 20t-20 48v75q0 28 20 48t48 20q18 0 37 -12v124q0 15 -11 26t-26 11q-16 0 -26.5 -11t-10.5 -26t-15 -15q-16 0 -16 15q0 28 20 47.5t48 19.5zM155 68v75q0 16 -11 26.5t-26 10.5q-16 0 -26.5 -10.5
t-10.5 -26.5v-75q0 -16 10.5 -26.5t26.5 -10.5q15 0 26 10.5t11 26.5zM100 453q-10 -13 -21 -2q-12 9 -2 21l29 35q4 5 11.5 5t11.5 -5l29 -35q11 -11 -2 -21q-3 -4 -9 -4q-7 0 -12 6l-17 21z" />
    <glyph glyph-name="atilde" unicode="&#xe3;" horiz-adv-x="237" 
d="M118 390q28 0 47.5 -19.5t19.5 -47.5v-255q0 -28 -19.5 -48t-47.5 -20t-48 20t-20 48v75q0 28 20 48t48 20q18 0 37 -12v124q0 15 -11 26t-26 11q-16 0 -27 -11t-11 -26t-15 -15t-15 15q0 28 20 47.5t48 19.5zM155 68v75q0 16 -11 26.5t-26 10.5q-16 0 -27 -10.5
t-11 -26.5v-75q0 -16 11 -26.5t27 -10.5q15 0 26 10.5t11 26.5zM93 451q-12 0 -20.5 8.5t-8.5 20.5t8.5 20.5t20.5 8.5q2 0 6 -2l46 -35q6 2 6 8q0 9 -9 9q-10 0 -10 10t10 10q12 0 20.5 -8.5t8.5 -20.5t-8.5 -20.5t-20.5 -8.5q-2 0 -6 2l-46 35q-6 -2 -6 -8q0 -9 9 -9
q10 0 10 -10t-10 -10z" />
    <glyph glyph-name="adieresis" unicode="&#xe4;" horiz-adv-x="237" 
d="M118 390q28 0 48 -19.5t20 -47.5v-255q0 -28 -20 -48t-48 -20t-48 20t-20 48v75q0 28 20 48t48 20q20 0 37 -12v124q0 15 -10.5 26t-26.5 11q-15 0 -26 -11t-11 -26t-15 -15q-16 0 -16 15q0 28 20 47.5t48 19.5zM155 68v75q0 16 -10.5 26.5t-26.5 10.5q-15 0 -26 -10.5
t-11 -26.5v-75q0 -16 11 -26.5t26 -10.5q16 0 26.5 10.5t10.5 26.5zM89 447q-15 0 -15 16v34q0 16 15 16q6 0 10.5 -4.5t4.5 -11.5v-34q0 -7 -4.5 -11.5t-10.5 -4.5zM147 447q-15 0 -15 16v34q0 16 15 16q6 0 10.5 -4.5t4.5 -11.5v-34q0 -7 -4.5 -11.5t-10.5 -4.5z" />
    <glyph glyph-name="aring" unicode="&#xe5;" horiz-adv-x="237" 
d="M118 390q28 0 47.5 -19.5t19.5 -47.5v-255q0 -28 -19.5 -48t-47.5 -20t-48 20t-20 48v75q0 28 20 48t48 20q18 0 37 -12v124q0 15 -11 26t-26 11q-16 0 -26.5 -11t-10.5 -26t-16 -15q-15 0 -15 15q0 28 20 47.5t48 19.5zM155 68v75q0 16 -11 26.5t-26 10.5
q-16 0 -26.5 -10.5t-10.5 -26.5v-75q0 -16 10.5 -26.5t26.5 -10.5q15 0 26 10.5t11 26.5zM118 451q-15 0 -25.5 10.5t-10.5 24.5t10.5 24.5t25.5 10.5q14 0 24.5 -10.5t10.5 -24.5t-10.5 -24.5t-24.5 -10.5zM118 501q-15 0 -15 -15t15 -15q14 0 14 15t-14 15z" />
    <glyph glyph-name="ae" unicode="&#xe6;" horiz-adv-x="341" 
d="M275 180h-89v-112q0 -16 11 -26.5t26 -10.5q16 0 26.5 10.5t10.5 26.5q0 6 4.5 10.5t10.5 4.5q7 0 11.5 -4.5t4.5 -10.5q0 -28 -20 -48t-48 -20q-33 0 -52 26q-21 -26 -53 -26q-28 0 -48 20t-20 48v75q0 28 20 48t48 20q18 0 37 -12v124q0 15 -11 26t-26 11
q-16 0 -26.5 -11t-10.5 -26t-15 -15q-16 0 -16 15q0 28 20 47.5t48 19.5q33 0 53 -25q19 25 52 25q28 0 48 -19.5t20 -47.5v-128q0 -6 -4.5 -10.5t-11.5 -4.5zM186 323v-112h74v112q0 15 -10.5 26t-26.5 11q-15 0 -26 -11t-11 -26zM155 68v75q0 15 -11 26t-26 11
q-16 0 -26.5 -11t-10.5 -26v-75q0 -16 10.5 -26.5t26.5 -10.5q15 0 26 10.5t11 26.5z" />
    <glyph glyph-name="ccedilla" unicode="&#xe7;" horiz-adv-x="236" 
d="M171 81q15 0 15 -15q0 -24 -15 -42.5t-38 -23.5l-10 -25q19 -8 19 -31q0 -14 -9.5 -23.5t-22.5 -9.5q-10 0 -10 10t10 10q12 0 12 13q0 14 -12 14q-3 0 -4 1l-2 1l-1 1l-1 1l-2 2v1v3v2v2v0l11 27q-26 3 -43 22.5t-17 44.5v255q0 29 19.5 48.5t48.5 19.5q28 0 47.5 -20
t19.5 -48q0 -6 -4.5 -10.5t-10.5 -4.5t-10.5 4.5t-4.5 10.5q0 16 -11 26.5t-26 10.5q-16 0 -27 -10.5t-11 -26.5v-255q0 -15 11 -26t27 -11q15 0 26 11t11 26t15 15z" />
    <glyph glyph-name="egrave" unicode="&#xe8;" horiz-adv-x="236" 
d="M170 180h-89v-112q0 -16 10.5 -26.5t26.5 -10.5q15 0 26 10.5t11 26.5q0 6 4.5 10.5t10.5 4.5q15 0 15 -15q0 -28 -19.5 -48t-47.5 -20t-48 20t-20 48v255q0 28 20 47.5t48 19.5t47.5 -19.5t19.5 -47.5v-128q0 -15 -15 -15zM81 323v-112h74v112q0 15 -11 26t-26 11
q-16 0 -26.5 -11t-10.5 -26zM125 450l-36 37q-11 11 0 21t21 0l37 -36q11 -11 0 -22q-4 -4 -11 -4t-11 4z" />
    <glyph glyph-name="eacute" unicode="&#xe9;" horiz-adv-x="236" 
d="M170 180h-89v-112q0 -16 10.5 -26.5t26.5 -10.5q15 0 26 10.5t11 26.5q0 6 4.5 10.5t10.5 4.5q15 0 15 -15q0 -28 -19.5 -48t-47.5 -20t-48 20t-20 48v255q0 28 20 47.5t48 19.5t47.5 -19.5t19.5 -47.5v-128q0 -15 -15 -15zM81 323v-112h74v112q0 15 -11 26t-26 11
q-16 0 -26.5 -11t-10.5 -26zM99 446q-6 0 -10 4q-11 11 0 22l36 36q11 11 22 0q11 -10 0 -21l-37 -37q-4 -4 -11 -4z" />
    <glyph glyph-name="ecircumflex" unicode="&#xea;" horiz-adv-x="236" 
d="M170 180h-90v-112q0 -16 11 -26.5t26 -10.5q16 0 27 10.5t11 26.5q0 15 15 15q6 0 10.5 -4.5t4.5 -10.5q0 -28 -20 -48t-48 -20t-47.5 20t-19.5 48v255q0 28 19.5 47.5t47.5 19.5t48 -19.5t20 -47.5v-128q0 -6 -4.5 -10.5t-10.5 -4.5zM80 323v-112h75v112q0 15 -11 26
t-27 11q-15 0 -26 -11t-11 -26zM100 453q-9 -13 -22 -2q-12 10 -2 21l30 35q4 5 11.5 5t11.5 -5l29 -35q10 -11 -2 -21q-4 -4 -10 -4t-11 6l-18 21z" />
    <glyph glyph-name="edieresis" unicode="&#xeb;" horiz-adv-x="236" 
d="M170 180h-90v-112q0 -16 11 -26.5t27 -10.5q15 0 26 10.5t11 26.5q0 15 15 15q6 0 10.5 -4.5t4.5 -10.5q0 -28 -19.5 -48t-47.5 -20t-48 20t-20 48v255q0 28 19.5 47.5t47.5 19.5t48 -19.5t20 -47.5v-128q0 -6 -4.5 -10.5t-10.5 -4.5zM80 323v-112h75v112q0 15 -11 26
t-27 11q-15 0 -26 -11t-11 -26zM88 447q-6 0 -10.5 4.5t-4.5 11.5v34q0 7 4.5 11.5t10.5 4.5q15 0 15 -16v-34q0 -16 -15 -16zM146 447q-6 0 -10.5 4.5t-4.5 11.5v34q0 7 4.5 11.5t10.5 4.5q16 0 16 -16v-34q0 -16 -16 -16z" />
    <glyph glyph-name="igrave" unicode="&#xec;" horiz-adv-x="170" 
d="M85 390q15 0 15 -15v-360q0 -15 -15 -15q-6 0 -10.5 4.5t-4.5 10.5v360q0 15 15 15zM88 446q-7 0 -11 4l-36 37q-11 11 0 21t21 0l37 -36q11 -11 0 -22q-4 -4 -11 -4z" />
    <glyph glyph-name="iacute" unicode="&#xed;" horiz-adv-x="170" 
d="M85 390q15 0 15 -15v-360q0 -6 -4.5 -10.5t-10.5 -4.5t-10.5 4.5t-4.5 10.5v360q0 15 15 15zM132 508q10 -10 0 -21l-36 -37q-4 -4 -11 -4t-11 4q-11 11 0 22l37 36q11 10 21 0z" />
    <glyph glyph-name="icircumflex" unicode="&#xee;" horiz-adv-x="170" 
d="M85 390q15 0 15 -15v-360q0 -15 -15 -15q-6 0 -10.5 4.5t-4.5 10.5v360q0 15 15 15zM126 472q10 -11 -2 -21q-4 -4 -10 -4t-11 6l-18 21l-17 -21q-10 -13 -21 -2q-13 10 -2 21l29 35q4 5 11.5 5t11.5 -5z" />
    <glyph glyph-name="idieresis" unicode="&#xef;" horiz-adv-x="170" 
d="M85 390q15 0 15 -15v-360q0 -6 -4.5 -10.5t-10.5 -4.5t-10.5 4.5t-4.5 10.5v360q0 15 15 15zM71 497v-35q0 -6 -4.5 -10.5t-10.5 -4.5q-15 0 -15 15v35q0 16 15 16q6 0 10.5 -4.5t4.5 -11.5zM114 513q6 0 10.5 -4.5t4.5 -11.5v-35q0 -6 -4.5 -10.5t-10.5 -4.5
q-15 0 -15 15v35q0 16 15 16z" />
    <glyph glyph-name="eth" unicode="&#xf0;" horiz-adv-x="238" 
d="M185 375v0v-307q0 -28 -19.5 -48t-47.5 -20t-48 20t-20 48v255q0 28 19.5 47.5t47.5 19.5h1h32l-20 68l-19 -17q-3 -4 -10 -4q-6 0 -11 5q-11 11 1 21l30 27l-70 241q-5 13 10 19q15 4 19 -11l66 -226l14 13q12 12 21 -1q10 -10 -1 -21l-25 -23l30 -102v-4zM118 31
q15 0 26 10.5t11 26.5v292h-37q-16 0 -27 -11t-11 -26v-255q0 -16 11 -26.5t27 -10.5z" />
    <glyph glyph-name="ntilde" unicode="&#xf1;" horiz-adv-x="236" 
d="M118 390q28 0 48 -19.5t20 -47.5v-308q0 -6 -4.5 -10.5t-10.5 -4.5q-7 0 -11.5 4.5t-4.5 10.5v308q0 15 -10.5 26t-26.5 11q-15 0 -26 -11t-11 -26v-308q0 -6 -4.5 -10.5t-10.5 -4.5t-10.5 4.5t-4.5 10.5v308q0 28 19.5 47.5t47.5 19.5zM94 451q-12 0 -21 8.5t-9 20.5
t9 20.5t21 8.5q2 0 6 -2l46 -35q6 2 6 8q0 9 -9 9q-10 0 -10 10t10 10q12 0 20.5 -8.5t8.5 -20.5t-8.5 -20.5t-20.5 -8.5q-2 0 -6 2l-46 35q-6 -2 -6 -8q0 -9 9 -9q10 0 10 -10t-10 -10z" />
    <glyph glyph-name="ograve" unicode="&#xf2;" 
d="M118 390q28 0 47.5 -19.5t19.5 -47.5v-255q0 -28 -19.5 -48t-47.5 -20t-48 20t-20 48v255q0 28 20 47.5t48 19.5zM155 68v255q0 15 -11 26t-26 11q-16 0 -26.5 -11t-10.5 -26v-255q0 -16 10.5 -26.5t26.5 -10.5q15 0 26 10.5t11 26.5zM125 450l-36 37q-11 11 0 21t21 0
l37 -36q11 -11 0 -22q-4 -4 -11 -4t-11 4z" />
    <glyph glyph-name="oacute" unicode="&#xf3;" 
d="M118 390q28 0 48 -19.5t20 -47.5v-255q0 -28 -20 -48t-48 -20t-47.5 20t-19.5 48v255q0 28 19.5 47.5t47.5 19.5zM155 68v255q0 15 -10.5 26t-26.5 11q-15 0 -26 -11t-11 -26v-255q0 -16 11 -26.5t26 -10.5q16 0 26.5 10.5t10.5 26.5zM100 446q-7 0 -11 4q-11 11 0 22
l37 36q10 11 21 0q11 -10 0 -21l-36 -37q-4 -4 -11 -4z" />
    <glyph glyph-name="ocircumflex" unicode="&#xf4;" 
d="M118 390q28 0 47.5 -19.5t19.5 -47.5v-255q0 -28 -19.5 -48t-47.5 -20t-48 20t-20 48v255q0 28 20 47.5t48 19.5zM155 68v255q0 15 -11 26t-26 11q-16 0 -26.5 -11t-10.5 -26v-255q0 -16 10.5 -26.5t26.5 -10.5q15 0 26 10.5t11 26.5zM100 453q-10 -13 -21 -2
q-13 10 -2 21l29 35q12 13 23 0l29 -35q11 -11 -2 -21q-4 -4 -9 -4q-7 0 -12 6l-17 21z" />
    <glyph glyph-name="otilde" unicode="&#xf5;" 
d="M117 390q28 0 48 -19.5t20 -47.5v-255q0 -28 -20 -48t-48 -20t-47.5 20t-19.5 48v255q0 28 19.5 47.5t47.5 19.5zM154 68v255q0 15 -10.5 26t-26.5 11q-15 0 -26 -11t-11 -26v-255q0 -16 11 -26.5t26 -10.5q16 0 26.5 10.5t10.5 26.5zM92 451q-12 0 -20.5 8.5t-8.5 20.5
t8.5 20.5t20.5 8.5q3 0 7 -2l46 -35q6 2 6 8q0 9 -9 9q-10 0 -10 10t10 10q12 0 20.5 -8.5t8.5 -20.5t-8.5 -20.5t-20.5 -8.5q-4 0 -6 2l-46 35q-6 -2 -6 -8q0 -9 8 -9q11 0 11 -10t-11 -10z" />
    <glyph glyph-name="odieresis" unicode="&#xf6;" 
d="M118 390q28 0 47.5 -19.5t19.5 -47.5v-255q0 -28 -19.5 -48t-47.5 -20t-48 20t-20 48v255q0 28 20 47.5t48 19.5zM155 68v255q0 15 -11 26t-26 11q-16 0 -27 -11t-11 -26v-255q0 -16 11 -26.5t27 -10.5q15 0 26 10.5t11 26.5zM88 447q-6 0 -10.5 4.5t-4.5 11.5v34
q0 7 4.5 11.5t10.5 4.5q15 0 15 -16v-34q0 -16 -15 -16zM146 447q-6 0 -10.5 4.5t-4.5 11.5v34q0 7 4.5 11.5t10.5 4.5q16 0 16 -16v-34q0 -16 -16 -16z" />
    <glyph glyph-name="oslash" unicode="&#xf8;" 
d="M176 358q9 -16 9 -35v-255q0 -28 -19.5 -48t-47.5 -20q-22 0 -42 15l-1 -3q-2 -8 -10 -8q-1 0 -1 0.5t-1 0.5q-11 2 -7 12l4 16q-10 17 -10 35v255q0 28 20 47.5t48 19.5q23 0 42 -14v2q4 11 13 7q9 -3 7 -13zM81 323v-220l69 238q-11 19 -32 19q-16 0 -26.5 -11
t-10.5 -26zM118 31q15 0 26 10.5t11 26.5v219l-69 -238q10 -18 32 -18z" />
    <glyph glyph-name="ugrave" unicode="&#xf9;" 
d="M169 390q16 0 16 -15v-307q0 -28 -20 -48t-48 -20t-47.5 20t-19.5 48v307q0 15 15 15t15 -15v-307q0 -16 11 -26.5t26 -10.5q16 0 26.5 10.5t10.5 26.5v307q0 15 15 15zM124 450l-36 37q-10 11 0 21t21 0l37 -36q11 -11 0 -22q-4 -4 -11 -4t-11 4z" />
    <glyph glyph-name="uacute" unicode="&#xfa;" 
d="M170 390q15 0 15 -15v-307q0 -28 -20 -48t-48 -20t-47.5 20t-19.5 48v307q0 15 15 15t15 -15v-307q0 -16 11 -26.5t26 -10.5q16 0 26.5 10.5t10.5 26.5v307q0 15 16 15zM99 446q-7 0 -11 4q-11 11 0 22l37 36q10 11 21 0q10 -10 0 -21l-36 -37q-4 -4 -11 -4z" />
    <glyph glyph-name="ucircumflex" unicode="&#xfb;" 
d="M169 390q16 0 16 -15v-307q0 -28 -20 -48t-48 -20t-48 20t-20 48v307q0 15 16 15q15 0 15 -15v-307q0 -16 11 -26.5t26 -10.5q16 0 26.5 10.5t10.5 26.5v307q0 15 15 15zM99 453q-9 -12 -21 -2t-2 21l29 35q5 5 12.5 5t11.5 -5l29 -35q10 -11 -2 -21q-4 -4 -10 -4
q-8 0 -12 6l-17 21z" />
    <glyph glyph-name="udieresis" unicode="&#xfc;" 
d="M170 390q15 0 15 -15v-307q0 -28 -20 -48t-48 -20t-47.5 20t-19.5 48v307q0 15 15 15t15 -15v-307q0 -16 11 -26.5t26 -10.5q16 0 26.5 10.5t10.5 26.5v307q0 15 16 15zM88 447q-6 0 -10.5 4.5t-4.5 11.5v34q0 7 4.5 11.5t10.5 4.5t10.5 -4.5t4.5 -11.5v-34
q0 -7 -4.5 -11.5t-10.5 -4.5zM146 447q-6 0 -10.5 4.5t-4.5 11.5v34q0 7 4.5 11.5t10.5 4.5t10.5 -4.5t4.5 -11.5v-34q0 -7 -4.5 -11.5t-10.5 -4.5z" />
    <glyph glyph-name="yacute" unicode="&#xfd;" 
d="M169 391q16 0 16 -16v-232v-75v-180q0 -28 -20 -47.5t-48 -19.5t-47.5 19.5t-19.5 47.5v37q0 16 15 16q6 0 10.5 -4.5t4.5 -11.5v-37q0 -15 11 -26t26 -11q16 0 26.5 11t10.5 26v124q-17 -12 -37 -12q-28 0 -47.5 20t-19.5 48v307q0 16 15 16q6 0 10.5 -4.5t4.5 -11.5
v-307q0 -16 11 -26.5t26 -10.5q16 0 26.5 10.5t10.5 26.5v75v232q0 7 4.5 11.5t10.5 4.5zM99 446q-7 0 -11 4q-11 11 0 22l37 36q11 10 21 0t0 -21l-36 -37q-4 -4 -11 -4z" />
    <glyph glyph-name="thorn" unicode="&#xfe;" 
d="M117 390q28 0 48 -19.5t20 -47.5v-255q0 -28 -19.5 -48t-48.5 -20q-20 0 -37 11v-176q0 -6 -4.5 -10.5t-10.5 -4.5t-10.5 4.5t-4.5 10.5v233v255v232q0 6 4.5 10.5t10.5 4.5t10.5 -4.5t4.5 -10.5v-176q17 11 37 11zM155 68v255q0 15 -11 26t-27 11q-15 0 -26 -11t-11 -26
v-255q0 -16 11 -27t26 -11q16 0 27 11t11 27z" />
    <glyph glyph-name="ydieresis" unicode="&#xff;" 
d="M169 391q6 0 10.5 -4.5t4.5 -11.5v-232v-75v-180q0 -28 -20 -47.5t-48 -19.5t-47.5 19.5t-19.5 47.5v37q0 7 4.5 11.5t10.5 4.5t10.5 -4.5t4.5 -11.5v-37q0 -15 11 -26t26 -11q16 0 27 11t11 26v124q-19 -12 -38 -12q-28 0 -47.5 20t-19.5 48v307q0 7 4.5 11.5t10.5 4.5
t10.5 -4.5t4.5 -11.5v-307q0 -16 11 -26.5t26 -10.5q16 0 27 10.5t11 26.5v75v232q0 16 15 16zM87 447q-6 0 -10.5 4.5t-4.5 11.5v35q0 6 4.5 10.5t10.5 4.5q7 0 11.5 -4.5t4.5 -10.5v-35q0 -16 -16 -16zM145 447q-6 0 -10.5 4.5t-4.5 11.5v35q0 6 4.5 10.5t10.5 4.5
q7 0 11.5 -4.5t4.5 -10.5v-35q0 -16 -16 -16z" />
    <glyph glyph-name="OE" unicode="&#x152;" horiz-adv-x="340" 
d="M275 360h-90v-292q0 -16 11 -26.5t26 -10.5q16 0 27 10.5t11 26.5q0 15 15 15q6 0 10.5 -4.5t4.5 -10.5q0 -28 -20 -48t-48 -20q-32 0 -52 25q-20 -25 -52 -25q-28 0 -48 20t-20 48v615q0 28 20 47.5t48 19.5q33 0 52 -25q19 25 52 25q28 0 48 -19.5t20 -47.5
q0 -7 -4.5 -11.5t-10.5 -4.5q-15 0 -15 16q0 15 -11 26t-27 11q-15 0 -26 -11t-11 -26v-293h90q15 0 15 -15q0 -6 -4.5 -10.5t-10.5 -4.5zM118 31q15 0 26 10.5t11 26.5v615q0 15 -11 26t-26 11q-16 0 -27 -11t-11 -26v-615q0 -16 11 -26.5t27 -10.5z" />
    <glyph glyph-name="oe" unicode="&#x153;" horiz-adv-x="340" 
d="M274 180h-89v-112q0 -16 10.5 -26.5t26.5 -10.5q15 0 26 10.5t11 26.5q0 6 4.5 10.5t10.5 4.5q15 0 15 -15q0 -28 -19.5 -48t-47.5 -20q-31 0 -53 25q-20 -25 -52 -25q-28 0 -47.5 20t-19.5 48v255q0 28 19.5 47.5t47.5 19.5q33 0 52 -24q21 24 53 24q28 0 47.5 -19.5
t19.5 -47.5v-128q0 -15 -15 -15zM185 323v-112h74v112q0 15 -11 26t-26 11q-16 0 -26.5 -11t-10.5 -26zM154 68v255q0 15 -10.5 26t-26.5 11q-15 0 -26 -11t-11 -26v-255q0 -16 11 -26.5t26 -10.5q16 0 26.5 10.5t10.5 26.5z" />
    <glyph glyph-name="Scaron" unicode="&#x160;" horiz-adv-x="236" 
d="M81 681l104 -611v-2q0 -28 -19.5 -48t-47.5 -20t-47.5 20t-19.5 48q0 15 15 15q6 0 10.5 -4.5t4.5 -10.5q0 -16 11 -26.5t26 -10.5t25.5 10.5t11.5 25.5l-104 611v2q0 28 19.5 47.5t47.5 19.5t47.5 -19.5t19.5 -47.5q0 -6 -4.5 -10.5t-10.5 -4.5t-10.5 4.5t-4.5 10.5
q0 16 -11 26.5t-26 10.5t-25.5 -10.5t-11.5 -25.5zM106 819l-29 34q-8 12 2 22q12 8 22 -2l17 -21l17 21q10 10 22 2q10 -10 2 -22l-29 -34q-4 -6 -12 -6t-12 6z" />
    <glyph glyph-name="scaron" unicode="&#x161;" horiz-adv-x="236" 
d="M81 326l104 -252q0 -1 0.5 -3t0.5 -3q0 -28 -20 -48t-48 -20t-47.5 20t-19.5 48q0 15 15 15q6 0 10.5 -4.5t4.5 -10.5q0 -16 11 -26.5t26 -10.5t25.5 10t11.5 24l-103 252q-1 2 -1 6q0 28 19.5 47.5t47.5 19.5t48 -19.5t20 -47.5q0 -15 -15 -15q-16 0 -16 15t-10.5 26
t-26.5 11q-14 0 -24.5 -10t-12.5 -24zM107 452l-29 35q-10 11 1 22q4 3 10 3q7 0 12 -5l17 -21l18 21q10 12 21 2q10 -10 2 -22l-29 -35q-5 -5 -12 -5t-11 5z" />
    <glyph glyph-name="Ydieresis" unicode="&#x178;" horiz-adv-x="221" 
d="M73 813q-6 0 -10.5 4.5t-4.5 10.5v35q0 6 4.5 10.5t10.5 4.5q7 0 11.5 -4.5t4.5 -10.5v-35q0 -6 -4.5 -10.5t-11.5 -4.5zM131 813q-6 0 -10.5 4.5t-4.5 10.5v35q0 6 4.5 10.5t10.5 4.5q15 0 15 -15v-35q0 -15 -15 -15zM157 747q6 -1 9.5 -6t2.5 -11l-52 -362v-353
q0 -15 -15 -15q-6 0 -10.5 4.5t-4.5 10.5v353l-52 362q-2 15 13 17t17 -13l37 -259l38 259q2 15 17 13z" />
    <glyph glyph-name="Zcaron" unicode="&#x17d;" horiz-adv-x="237" 
d="M170 30q6 0 10.5 -4.5t4.5 -10.5q0 -15 -15 -15h-105q-7 0 -11 5q-4 4 -4 12l102 699h-87q-6 0 -10.5 4.5t-4.5 10.5q0 7 4.5 11.5t10.5 4.5h105q6 0 11 -6q4 -4 4 -12l-102 -699h87zM106 818l-29 34q-9 13 2 22q11 10 21 -2l17 -21l18 21q10 12 21 2q11 -9 2 -22
l-29 -34q-5 -6 -12 -6q-6 0 -11 6z" />
    <glyph glyph-name="zcaron" unicode="&#x17e;" horiz-adv-x="236" 
d="M170 31q15 0 15 -16q0 -15 -15 -15h-105q-6 0 -12 6q-5 7 -2 14l99 340h-85q-6 0 -10.5 4.5t-4.5 10.5q0 15 15 15h105q8 0 12 -6q5 -5 3 -13l-99 -340h84zM106 453l-29 34q-9 13 2 22q4 3 10 3q7 0 11 -5l18 -21l17 21q10 10 22 2q11 -9 2 -22l-30 -34q-4 -5 -11 -5
t-12 5z" />
    <glyph glyph-name="endash" unicode="&#x2013;" horiz-adv-x="833" 
 />
    <glyph glyph-name="emdash" unicode="&#x2014;" horiz-adv-x="340" 
d="M275 360h-209q-16 0 -16 15q0 6 4.5 10.5t11.5 4.5h209q6 0 10.5 -4.5t4.5 -10.5q0 -15 -15 -15z" />
    <glyph glyph-name="quoteleft" unicode="&#x2018;" horiz-adv-x="130" 
d="M65 750q6 0 10.5 -4.5t4.5 -10.5v-41q0 -7 -4.5 -11.5t-10.5 -4.5q-15 0 -15 16v41q0 15 15 15z" />
    <glyph glyph-name="quoteright" unicode="&#x2019;" horiz-adv-x="130" 
d="M65 750q6 0 10.5 -4.5t4.5 -10.5v-41q0 -7 -4.5 -11.5t-10.5 -4.5q-15 0 -15 16v41q0 15 15 15z" />
    <glyph glyph-name="quotedblleft" unicode="&#x201c;" horiz-adv-x="180" 
d="M117 750q15 0 15 -15v-41q0 -16 -15 -16q-6 0 -10.5 4.5t-4.5 11.5v41q0 6 4.5 10.5t10.5 4.5zM65 750q6 0 10.5 -4.5t4.5 -10.5v-41q0 -7 -4.5 -11.5t-10.5 -4.5q-15 0 -15 16v41q0 15 15 15z" />
    <glyph glyph-name="quotedblright" unicode="&#x201d;" horiz-adv-x="184" 
d="M117 750q15 0 15 -15v-41q0 -16 -15 -16q-6 0 -10.5 4.5t-4.5 11.5v41q0 6 4.5 10.5t10.5 4.5zM65 750q6 0 10.5 -4.5t4.5 -10.5v-41q0 -7 -4.5 -11.5t-10.5 -4.5q-15 0 -15 16v41q0 15 15 15z" />
    <glyph glyph-name="bullet" unicode="&#x2022;" horiz-adv-x="185" 
d="M91 333q-17 0 -29 12.5t-12 29.5t12 29t29 12t29.5 -12t12.5 -29t-12.5 -29.5t-29.5 -12.5zM91 386q-11 0 -11 -11q0 -12 11 -12t11 12q0 11 -11 11z" />
    <glyph glyph-name="ellipsis" unicode="&#x2026;" horiz-adv-x="405" 
d="M65 0q-6 0 -10.5 4.5t-4.5 10.5v52q0 6 4.5 10.5t10.5 4.5q7 0 11.5 -4.5t4.5 -10.5v-52q0 -6 -4.5 -10.5t-11.5 -4.5zM200 0q-6 0 -10.5 4.5t-4.5 10.5v52q0 6 4.5 10.5t10.5 4.5q7 0 11.5 -4.5t4.5 -10.5v-52q0 -6 -4.5 -10.5t-11.5 -4.5zM335 0q-6 0 -10.5 4.5
t-4.5 10.5v52q0 6 4.5 10.5t10.5 4.5q7 0 11.5 -4.5t4.5 -10.5v-52q0 -6 -4.5 -10.5t-11.5 -4.5z" />
    <glyph glyph-name="fraction" unicode="&#x2044;" horiz-adv-x="236" 
d="M66 0h-2q-15 2 -13 17l105 720q2 15 17 13q15 -4 13 -18l-105 -719q-2 -13 -15 -13z" />
    <glyph glyph-name="Euro" unicode="&#x20ac;" horiz-adv-x="280" 
d="M210 427h-89v-74h89q7 0 11.5 -4.5t4.5 -10.5q0 -15 -16 -15h-89v-256q0 -15 11 -26t26 -11q16 0 26.5 11t10.5 26t15 15q16 0 16 -15q0 -28 -20 -47.5t-48 -19.5t-48 19.5t-20 47.5v256h-37q-15 0 -15 15q0 6 4.5 10.5t10.5 4.5h37v74h-37q-15 0 -15 15q0 6 4.5 10.5
t10.5 4.5h37v225q0 28 20 48t48 20t48 -20t20 -48q0 -6 -4.5 -10.5t-11.5 -4.5q-6 0 -10.5 4.5t-4.5 10.5q0 16 -10.5 26.5t-26.5 10.5q-15 0 -26 -10.5t-11 -26.5v-225h89q7 0 11.5 -4.5t4.5 -10.5q0 -15 -16 -15z" />
    <glyph glyph-name="fi" unicode="&#xfb01;" 
d="M170 390q6 0 10.5 -4.5t4.5 -10.5v-360q0 -15 -15 -15t-15 15v344h-75v-292q0 -15 11 -26t27 -11q6 0 10.5 -4.5t4.5 -10.5q0 -15 -15 -15q-28 0 -48 19.5t-20 47.5v615q0 28 20 48t48 20t47.5 -20t19.5 -48q0 -6 -4.5 -10.5t-10.5 -4.5t-10.5 4.5t-4.5 10.5q0 15 -11 26
t-26 11q-16 0 -27 -11t-11 -26v-292h90z" />
    <glyph glyph-name="fl" unicode="&#xfb02;" horiz-adv-x="280" 
d="M226 30q16 0 16 -15q0 -6 -4.5 -10.5t-11.5 -4.5q-28 0 -47.5 20t-19.5 48v652h-41q-16 0 -26.5 -11t-10.5 -27v-292h49q7 0 11.5 -4.5t4.5 -10.5t-4.5 -10.5t-11.5 -4.5h-49v-292q0 -16 10.5 -27t26.5 -11q15 0 15 -15q0 -6 -4.5 -10.5t-10.5 -4.5q-28 0 -48 20t-20 48
v614q0 28 20 48t48 20h56q6 0 10.5 -4.5t4.5 -10.5v-667q0 -16 11 -27t26 -11z" />
    <glyph glyph-name="CR" horiz-adv-x="500" 
 />
  </font>
</defs>
</svg>
